<svg width="236" height="56" viewBox="0 0 236 56" fill="none" xmlns="http://www.w3.org/2000/svg">
<ellipse cx="28.0924" cy="28" rx="28.0924" ry="28" fill="#BBD1E4"/>
<mask id="mask0" mask-type="alpha" maskUnits="userSpaceOnUse" x="0" y="0" width="57" height="56">
<ellipse cx="28.0924" cy="28" rx="28.0924" ry="28" fill="#BBD1E4"/>
</mask>
<g mask="url(#mask0)">
<path d="M19.0282 18.2308C10.0881 17.7005 4.49963 26.924 -0.213644 30.6669C-0.602514 30.9662 2.41442 64.3125 33.0127 55.5017C75.261 41.8143 52.5161 12.1874 49.0869 8.51063C43.2027 12.8089 37.9617 22.2367 29.0576 21.7432C24.9126 21.5135 23.1723 18.4767 19.0282 18.2308Z" fill="#6DAAB9"/>
</g>
<mask id="mask1" mask-type="alpha" maskUnits="userSpaceOnUse" x="0" y="6" width="57" height="50">
<mask id="mask2" maskUnits="userSpaceOnUse" x="0" y="0" width="57" height="56">
<ellipse cx="28.0924" cy="28" rx="28.0924" ry="28" fill="#BBD1E4"/>
</mask>
<g mask="url(#mask2)">
<path d="M17.8795 20.5028C8.95794 21.2844 4.78633 31.2247 0.674428 35.6158C0.333775 35.9687 11.6865 65.52 37.1943 55.328C76.9732 35.6158 50.1168 9.63203 46.1839 6.496C40.9955 11.6075 37.1976 21.6992 28.3172 22.512C24.1831 22.8904 22.015 20.1406 17.8795 20.5028Z" fill="#6DAAB9"/>
</g>
</mask>
<g mask="url(#mask1)">
<path d="M8.36673 38.304C6.60829 38.304 -0.288086 42.1313 -0.288086 42.1313C-0.288086 42.1313 9.89409 56.8504 17.7084 58.2608C26.7957 59.9009 38.7667 58.0474 38.5899 57.0306C37.8768 52.9305 34.3369 37.5435 34.018 37.8438C33.0648 38.7414 31.6901 41.3112 29.7709 41.3112C27.8476 41.3112 26.2259 38.304 23.8904 38.304C21.1429 38.304 19.0822 41.3112 15.5104 41.3112C11.9386 41.3112 10.5648 38.304 8.36673 38.304Z" fill="#60C5DD"/>
</g>
<mask id="mask3" mask-type="alpha" maskUnits="userSpaceOnUse" x="0" y="0" width="57" height="56">
<ellipse cx="28.0924" cy="28" rx="28.0924" ry="28" fill="#BBD1E4"/>
</mask>
<g mask="url(#mask3)">
<path d="M10.675 43.232C9.23666 43.232 3.5957 46.368 3.5957 46.368C3.5957 46.368 11.9243 58.4284 18.3161 59.584C25.7492 60.9278 35.541 59.4092 35.3963 58.576C34.8131 55.2165 32.286 43.9734 32.0252 44.2194C31.2456 44.9549 30.1117 45.696 28.5418 45.696C26.9686 45.696 25.283 43.232 23.3728 43.232C21.1254 43.232 19.4398 45.696 16.5182 45.696C13.5966 45.696 12.4729 43.232 10.675 43.232Z" fill="#92EAFF"/>
</g>
<mask id="mask4" mask-type="alpha" maskUnits="userSpaceOnUse" x="0" y="0" width="57" height="56">
<ellipse cx="28.0924" cy="28" rx="28.0924" ry="28" fill="#BBD1E4"/>
</mask>
<g mask="url(#mask4)">
<path d="M10.675 48.384C9.23666 48.384 3.5957 51.52 3.5957 51.52C3.5957 51.52 11.9243 63.5804 18.3161 64.736C25.7492 66.0798 35.541 64.5612 35.3963 63.728C34.8131 60.3685 32.286 49.1254 32.0252 49.3714C31.2456 50.1069 30.1117 50.848 28.5418 50.848C26.9686 50.848 25.283 48.384 23.3728 48.384C21.1254 48.384 19.4398 50.848 16.5182 50.848C13.5966 50.848 12.4729 48.384 10.675 48.384Z" fill="#60C5DD"/>
</g>
<mask id="mask5" mask-type="alpha" maskUnits="userSpaceOnUse" x="0" y="0" width="57" height="56">
<ellipse cx="28.0924" cy="28" rx="28.0924" ry="28" fill="#BBD1E4"/>
</mask>
<g mask="url(#mask5)">
<path d="M38.8818 23.296H46.2965V45.9645C46.2965 45.9645 44.5046 50.5243 41.6537 52.5761C37.8035 55.347 31.6963 56 31.6963 56V32.6415C31.6963 32.6415 31.4495 28.7931 33.7212 26.1295C35.9928 23.466 38.8818 23.296 38.8818 23.296Z" fill="#1B618F"/>
</g>
<mask id="mask6" mask-type="alpha" maskUnits="userSpaceOnUse" x="0" y="0" width="57" height="56">
<ellipse cx="28.0924" cy="28" rx="28.0924" ry="28" fill="#BBD1E4"/>
</mask>
<g mask="url(#mask6)">
<path d="M43.5462 23.52H50.9039C50.9039 23.52 57.7584 33.376 53.1513 43.68C48.5441 53.984 36.416 54.992 36.416 54.992L36.416 32.3855C36.416 32.3855 36.1711 28.7348 38.4253 26.208C40.6794 23.6813 43.5462 23.52 43.5462 23.52Z" fill="#195A84"/>
<path d="M48.0404 21.28H55.398C55.398 21.28 58.432 28.784 53.8249 39.088C49.2177 49.392 40.9101 52.752 40.9101 52.752L40.9101 30.1455C40.9101 30.1455 40.6652 26.4947 42.9194 23.968C45.1736 21.4413 48.0404 21.28 48.0404 21.28Z" fill="#4084B0"/>
</g>
<path d="M79.4173 24.8675C78.1438 23.3182 76.5706 22.5435 74.6978 22.5435C73.8738 22.5435 73.1059 22.6928 72.3942 22.9915C71.7013 23.2902 71.102 23.7008 70.5963 24.2235C70.0907 24.7275 69.688 25.3342 69.3883 26.0435C69.1074 26.7528 68.967 27.5182 68.967 28.3395C68.967 29.1795 69.1074 29.9542 69.3883 30.6635C69.688 31.3728 70.0907 31.9888 70.5963 32.5115C71.1207 33.0342 71.7294 33.4448 72.4223 33.7435C73.1153 34.0422 73.8644 34.1915 74.6697 34.1915C76.4302 34.1915 78.0127 33.4448 79.4173 31.9515V38.4475L78.8555 38.6435C78.0127 38.9422 77.2261 39.1568 76.4957 39.2875C75.7653 39.4368 75.0443 39.5115 74.3326 39.5115C72.8718 39.5115 71.4672 39.2408 70.1187 38.6995C68.789 38.1395 67.6092 37.3648 66.5791 36.3755C65.5678 35.3675 64.7531 34.1822 64.1351 32.8195C63.517 31.4382 63.208 29.9355 63.208 28.3115C63.208 26.6875 63.5077 25.2035 64.107 23.8595C64.725 22.4968 65.5397 21.3302 66.551 20.3595C67.5811 19.3702 68.7703 18.6048 70.1187 18.0635C71.4672 17.5035 72.8812 17.2235 74.3607 17.2235C75.2035 17.2235 76.0275 17.3168 76.8328 17.5035C77.6569 17.6715 78.5184 17.9422 79.4173 18.3155V24.8675Z" fill="#144D72"/>
<path d="M87.0021 34.2755H88.2662C89.2214 34.2755 90.0735 34.1262 90.8226 33.8275C91.5718 33.5288 92.1992 33.1182 92.7048 32.5955C93.2292 32.0728 93.6225 31.4568 93.8847 30.7475C94.1656 30.0195 94.3061 29.2262 94.3061 28.3675C94.3061 27.5275 94.1656 26.7435 93.8847 26.0155C93.6038 25.2875 93.2011 24.6622 92.6767 24.1395C92.1711 23.6168 91.5437 23.2062 90.7945 22.9075C90.0454 22.6088 89.2026 22.4595 88.2662 22.4595H87.0021V34.2755ZM81.496 17.8115H89.6428C91.0848 17.8115 92.4333 18.1008 93.6881 18.6795C94.9616 19.2582 96.0666 20.0328 97.003 21.0035C97.9581 21.9555 98.7072 23.0755 99.2504 24.3635C99.7935 25.6328 100.065 26.9675 100.065 28.3675C100.065 29.7488 99.7935 31.0835 99.2504 32.3715C98.726 33.6408 97.9862 34.7608 97.0311 35.7315C96.0946 36.7022 94.9897 37.4768 93.7162 38.0555C92.4614 38.6342 91.1036 38.9235 89.6428 38.9235H81.496V17.8115Z" fill="#144D72"/>
<path d="M106.98 28.3675C106.98 29.2075 107.139 29.9822 107.457 30.6915C107.775 31.4008 108.206 32.0168 108.749 32.5395C109.292 33.0622 109.92 33.4728 110.632 33.7715C111.362 34.0515 112.13 34.1915 112.935 34.1915C113.74 34.1915 114.499 34.0515 115.211 33.7715C115.941 33.4728 116.578 33.0622 117.121 32.5395C117.683 32.0168 118.123 31.4008 118.441 30.6915C118.76 29.9822 118.919 29.2075 118.919 28.3675C118.919 27.5275 118.76 26.7528 118.441 26.0435C118.123 25.3342 117.683 24.7182 117.121 24.1955C116.578 23.6728 115.941 23.2715 115.211 22.9915C114.499 22.6928 113.74 22.5435 112.935 22.5435C112.13 22.5435 111.362 22.6928 110.632 22.9915C109.92 23.2715 109.292 23.6728 108.749 24.1955C108.206 24.7182 107.775 25.3342 107.457 26.0435C107.139 26.7528 106.98 27.5275 106.98 28.3675ZM101.221 28.3675C101.221 26.7995 101.511 25.3435 102.091 23.9995C102.672 22.6368 103.477 21.4515 104.507 20.4435C105.537 19.4355 106.764 18.6515 108.187 18.0915C109.63 17.5128 111.212 17.2235 112.935 17.2235C114.639 17.2235 116.213 17.5128 117.655 18.0915C119.097 18.6515 120.333 19.4355 121.363 20.4435C122.412 21.4515 123.226 22.6368 123.807 23.9995C124.387 25.3435 124.678 26.7995 124.678 28.3675C124.678 29.9355 124.387 31.4008 123.807 32.7635C123.226 34.1075 122.412 35.2835 121.363 36.2915C120.333 37.2995 119.097 38.0928 117.655 38.6715C116.213 39.2315 114.639 39.5115 112.935 39.5115C111.212 39.5115 109.63 39.2315 108.187 38.6715C106.764 38.0928 105.537 37.2995 104.507 36.2915C103.477 35.2835 102.672 34.1075 102.091 32.7635C101.511 31.4008 101.221 29.9355 101.221 28.3675Z" fill="#144D72"/>
<path d="M126.021 36.2355C126.021 35.7875 126.105 35.3675 126.274 34.9755C126.442 34.5648 126.676 34.2102 126.976 33.9115C127.275 33.6128 127.622 33.3795 128.015 33.2115C128.427 33.0435 128.858 32.9595 129.307 32.9595C129.757 32.9595 130.178 33.0435 130.572 33.2115C130.984 33.3795 131.34 33.6128 131.639 33.9115C131.939 34.2102 132.173 34.5648 132.341 34.9755C132.51 35.3675 132.594 35.7875 132.594 36.2355C132.594 36.6835 132.51 37.1128 132.341 37.5235C132.173 37.9155 131.939 38.2608 131.639 38.5595C131.34 38.8582 130.984 39.0915 130.572 39.2595C130.178 39.4275 129.757 39.5115 129.307 39.5115C128.858 39.5115 128.427 39.4275 128.015 39.2595C127.622 39.0915 127.275 38.8582 126.976 38.5595C126.676 38.2608 126.442 37.9155 126.274 37.5235C126.105 37.1128 126.021 36.6835 126.021 36.2355Z" fill="#144D72"/>
<path d="M147.029 22.4595H140.4V25.9875H146.439V30.6355H140.4V38.9235H134.893V17.8115H147.029V22.4595Z" fill="#144D72"/>
<path d="M153.487 24.5595V38.9235H148.402V24.5595H153.487ZM148.065 19.0435C148.065 18.6515 148.14 18.2875 148.289 17.9515C148.439 17.5968 148.645 17.2888 148.907 17.0275C149.17 16.7662 149.469 16.5608 149.806 16.4115C150.162 16.2622 150.537 16.1875 150.93 16.1875C151.323 16.1875 151.689 16.2622 152.026 16.4115C152.382 16.5608 152.691 16.7662 152.953 17.0275C153.215 17.2888 153.421 17.5968 153.571 17.9515C153.721 18.2875 153.796 18.6515 153.796 19.0435C153.796 19.4355 153.721 19.8088 153.571 20.1635C153.421 20.4995 153.215 20.7982 152.953 21.0595C152.691 21.3208 152.382 21.5262 152.026 21.6755C151.689 21.8248 151.323 21.8995 150.93 21.8995C150.537 21.8995 150.162 21.8248 149.806 21.6755C149.469 21.5262 149.17 21.3208 148.907 21.0595C148.645 20.7982 148.439 20.4995 148.289 20.1635C148.14 19.8088 148.065 19.4355 148.065 19.0435Z" fill="#144D72"/>
<path d="M155.557 24.5595H160.641V26.3795C161.334 25.5395 162.037 24.9795 162.748 24.6995C163.46 24.4008 164.293 24.2515 165.248 24.2515C166.26 24.2515 167.121 24.4195 167.833 24.7555C168.563 25.0728 169.181 25.5302 169.687 26.1275C170.099 26.6128 170.38 27.1542 170.53 27.7515C170.68 28.3488 170.755 29.0302 170.755 29.7955V38.9235H165.67V31.6715C165.67 30.9622 165.614 30.3928 165.501 29.9635C165.408 29.5155 165.23 29.1608 164.968 28.8995C164.743 28.6755 164.49 28.5168 164.209 28.4235C163.928 28.3302 163.628 28.2835 163.31 28.2835C162.449 28.2835 161.784 28.5448 161.316 29.0675C160.866 29.5715 160.641 30.2995 160.641 31.2515V38.9235H155.557V24.5595Z" fill="#144D72"/>
<path d="M177.527 31.6995C177.527 32.1662 177.611 32.6048 177.779 33.0155C177.948 33.4075 178.173 33.7528 178.454 34.0515C178.753 34.3502 179.1 34.5835 179.493 34.7515C179.905 34.9195 180.345 35.0035 180.813 35.0035C181.263 35.0035 181.684 34.9195 182.078 34.7515C182.49 34.5835 182.836 34.3502 183.117 34.0515C183.417 33.7528 183.651 33.4075 183.819 33.0155C184.007 32.6235 184.1 32.2035 184.1 31.7555C184.1 31.3075 184.007 30.8875 183.819 30.4955C183.651 30.0848 183.417 29.7302 183.117 29.4315C182.836 29.1328 182.49 28.8995 182.078 28.7315C181.684 28.5635 181.263 28.4795 180.813 28.4795C180.345 28.4795 179.905 28.5635 179.493 28.7315C179.1 28.8995 178.753 29.1328 178.454 29.4315C178.173 29.7302 177.948 30.0755 177.779 30.4675C177.611 30.8408 177.527 31.2515 177.527 31.6995ZM183.932 24.5595H189.044V38.9235H183.932V37.3275C182.845 38.6902 181.375 39.3715 179.521 39.3715C178.472 39.3715 177.508 39.1848 176.628 38.8115C175.747 38.4195 174.98 37.8782 174.324 37.1875C173.669 36.4968 173.154 35.6848 172.779 34.7515C172.423 33.8182 172.245 32.8008 172.245 31.6995C172.245 30.6728 172.423 29.7022 172.779 28.7875C173.135 27.8542 173.631 27.0422 174.268 26.3515C174.905 25.6608 175.663 25.1195 176.543 24.7275C177.424 24.3168 178.397 24.1115 179.465 24.1115C181.263 24.1115 182.752 24.7368 183.932 25.9875V24.5595Z" fill="#144D72"/>
<path d="M191.1 24.5595H196.185V26.3795C196.878 25.5395 197.58 24.9795 198.292 24.6995C199.003 24.4008 199.837 24.2515 200.792 24.2515C201.803 24.2515 202.665 24.4195 203.376 24.7555C204.107 25.0728 204.725 25.5302 205.231 26.1275C205.643 26.6128 205.923 27.1542 206.073 27.7515C206.223 28.3488 206.298 29.0302 206.298 29.7955V38.9235H201.213V31.6715C201.213 30.9622 201.157 30.3928 201.045 29.9635C200.951 29.5155 200.773 29.1608 200.511 28.8995C200.286 28.6755 200.033 28.5168 199.753 28.4235C199.472 28.3302 199.172 28.2835 198.854 28.2835C197.992 28.2835 197.327 28.5448 196.859 29.0675C196.41 29.5715 196.185 30.2995 196.185 31.2515V38.9235H191.1V24.5595Z" fill="#144D72"/>
<path d="M219.222 29.2075C218.342 28.6102 217.453 28.3115 216.554 28.3115C216.067 28.3115 215.608 28.3955 215.177 28.5635C214.765 28.7315 214.4 28.9742 214.081 29.2915C213.763 29.5902 213.51 29.9542 213.323 30.3835C213.154 30.7942 213.07 31.2608 213.07 31.7835C213.07 32.2875 213.154 32.7542 213.323 33.1835C213.51 33.5942 213.754 33.9582 214.053 34.2755C214.372 34.5742 214.746 34.8075 215.177 34.9755C215.608 35.1435 216.067 35.2275 216.554 35.2275C217.509 35.2275 218.398 34.9008 219.222 34.2475V38.5595C217.968 39.1008 216.778 39.3715 215.655 39.3715C214.606 39.3715 213.604 39.1942 212.649 38.8395C211.712 38.4848 210.879 37.9808 210.148 37.3275C209.437 36.6555 208.866 35.8622 208.435 34.9475C208.004 34.0142 207.789 32.9782 207.789 31.8395C207.789 30.7008 207.995 29.6648 208.407 28.7315C208.819 27.7795 209.381 26.9675 210.092 26.2955C210.804 25.6048 211.647 25.0728 212.621 24.6995C213.613 24.3075 214.671 24.1115 215.795 24.1115C217.031 24.1115 218.174 24.3728 219.222 24.8955V29.2075Z" fill="#144D72"/>
<path d="M231.252 29.6555C231.084 28.9462 230.737 28.3768 230.213 27.9475C229.689 27.5182 229.052 27.3035 228.303 27.3035C227.516 27.3035 226.87 27.5088 226.364 27.9195C225.877 28.3302 225.568 28.9088 225.437 29.6555H231.252ZM225.297 32.5955C225.297 34.7795 226.327 35.8715 228.387 35.8715C229.492 35.8715 230.325 35.4235 230.887 34.5275H235.803C234.811 37.8128 232.329 39.4555 228.359 39.4555C227.142 39.4555 226.027 39.2782 225.016 38.9235C224.005 38.5502 223.134 38.0275 222.403 37.3555C221.692 36.6835 221.139 35.8808 220.746 34.9475C220.353 34.0142 220.156 32.9688 220.156 31.8115C220.156 30.6168 220.343 29.5435 220.718 28.5915C221.092 27.6208 221.626 26.7995 222.319 26.1275C223.012 25.4555 223.845 24.9422 224.819 24.5875C225.812 24.2142 226.926 24.0275 228.162 24.0275C229.38 24.0275 230.475 24.2142 231.449 24.5875C232.423 24.9422 233.247 25.4648 233.921 26.1555C234.595 26.8462 235.11 27.6955 235.466 28.7035C235.822 29.6928 236 30.8128 236 32.0635V32.5955H225.297Z" fill="#144D72"/>
</svg>
