<svg width="370" height="440" viewBox="0 0 370 440" fill="none" xmlns="http://www.w3.org/2000/svg">
<g clip-path="url(#clip0)">
<path d="M58.3437 63.2288C22.0799 86.0499 -3.6039 127.044 0.412493 165.686C4.51873 204.238 38.3357 240.516 49.9516 286.243C61.5674 331.97 51.0878 387.299 70.4881 415.445C89.7932 443.685 139.19 444.907 179.438 432.492C219.803 420.166 251.083 394.204 285.857 370.95C320.63 347.779 358.834 327.237 367.818 297.6C376.802 268.053 356.545 229.391 334.524 200.568C312.592 171.629 288.742 152.573 264.105 125.913C239.467 99.253 213.953 65.0688 177.779 50.3007C141.52 35.5219 94.597 40.3283 58.3437 63.2288Z" fill="#F2F2F2"/>
<path d="M158.278 317.667L165.941 180.983" stroke="#FED385" stroke-width="5" stroke-miterlimit="10" stroke-linecap="round"/>
<path d="M158.278 317.667L250.761 194.995" stroke="#FED385" stroke-width="5" stroke-miterlimit="10" stroke-linecap="round"/>
<path d="M158.278 317.667L256.574 103.52" stroke="#FED385" stroke-width="5" stroke-miterlimit="10" stroke-linecap="round"/>
<path d="M316.796 82.5775C326.874 54.86 317.542 26.0206 295.953 18.163C274.364 10.3053 248.693 26.4049 238.616 54.1224C228.539 81.8399 237.87 110.679 259.459 118.537C281.048 126.395 306.719 110.295 316.796 82.5775Z" fill="#FD8369"/>
<path d="M213.513 142.63C215.564 113.207 198.649 88.058 175.732 86.4586C152.815 84.8593 132.574 107.415 130.523 136.838C128.471 166.261 145.387 191.409 168.304 193.009C191.221 194.608 211.462 172.053 213.513 142.63Z" fill="#D37C59"/>
<path d="M322.607 166.346C336.911 136.937 328.402 103.307 303.602 91.2311C278.801 79.1553 247.1 93.2068 232.796 122.616C218.491 152.025 227 185.655 251.801 197.731C276.602 209.807 308.302 195.755 322.607 166.346Z" fill="#74D5DE"/>
<path d="M241.644 57.1147C245.874 29.2953 230.637 3.90203 207.611 0.397224C184.585 -3.10759 162.489 16.6033 158.259 44.4227C154.03 72.2421 169.267 97.6354 192.293 101.14C215.319 104.645 237.415 84.9341 241.644 57.1147Z" fill="#74D5DE"/>
<path d="M254.504 130.461C262.423 104.35 253.143 78.4166 233.777 72.537C214.411 66.6573 192.292 83.0581 184.373 109.169C176.454 135.28 185.734 161.214 205.1 167.094C224.466 172.973 246.585 156.573 254.504 130.461Z" fill="#FED385"/>
<path d="M168.224 191.41L172.98 202.588C173.119 202.916 173.169 203.275 173.125 203.629C173.081 203.982 172.946 204.318 172.732 204.603C172.518 204.888 172.233 205.111 171.906 205.251C171.578 205.391 171.22 205.443 170.866 205.401L158.823 203.915C158.468 203.872 158.131 203.737 157.846 203.522C157.561 203.307 157.338 203.021 157.198 202.692C157.059 202.364 157.009 202.004 157.053 201.65C157.096 201.295 157.233 200.959 157.448 200.674L164.757 190.982C164.973 190.702 165.257 190.484 165.582 190.348C165.908 190.212 166.263 190.164 166.613 190.207C166.963 190.25 167.295 190.384 167.578 190.595C167.86 190.806 168.083 191.087 168.224 191.41Z" fill="#D37C59"/>
<path d="M158.278 317.667L140.839 121.498" stroke="#FED385" stroke-width="5" stroke-miterlimit="10" stroke-linecap="round"/>
<path d="M158.278 317.667L204.784 162.212" stroke="#FED385" stroke-width="5" stroke-miterlimit="10" stroke-linecap="round"/>
<path d="M206.507 162.355L209.276 174.183C209.356 174.53 209.344 174.893 209.24 175.234C209.136 175.574 208.944 175.882 208.684 176.125C208.424 176.368 208.104 176.539 207.757 176.619C207.41 176.7 207.048 176.688 206.707 176.584L195.081 173.057C194.74 172.954 194.432 172.762 194.188 172.502C193.944 172.242 193.773 171.922 193.693 171.574C193.612 171.227 193.624 170.865 193.727 170.523C193.831 170.182 194.023 169.874 194.283 169.631L203.14 161.334C203.4 161.09 203.72 160.919 204.067 160.837C204.414 160.756 204.777 160.767 205.118 160.871C205.46 160.974 205.768 161.166 206.011 161.427C206.255 161.687 206.426 162.007 206.507 162.355Z" fill="#FED385"/>
<path d="M253.884 192.938L253.038 205.047C253.015 205.404 252.897 205.749 252.698 206.047C252.498 206.344 252.223 206.584 251.901 206.741C251.579 206.897 251.221 206.966 250.864 206.94C250.507 206.913 250.163 206.793 249.867 206.591L239.826 199.801C239.53 199.602 239.292 199.328 239.136 199.007C238.98 198.687 238.911 198.33 238.936 197.974C238.961 197.618 239.079 197.275 239.279 196.979C239.479 196.684 239.754 196.446 240.075 196.291L250.977 190.971C251.297 190.817 251.652 190.749 252.006 190.775C252.36 190.801 252.702 190.919 252.996 191.118C253.29 191.317 253.527 191.59 253.683 191.909C253.839 192.229 253.908 192.584 253.884 192.938Z" fill="#74D5DE"/>
<path d="M141.355 127.394C168.847 125.181 189.009 96.9582 186.388 64.3568C183.766 31.7554 159.354 7.12091 131.861 9.3341C104.368 11.5473 84.2063 39.7701 86.8279 72.3715C89.4496 104.973 113.862 129.607 141.355 127.394Z" fill="#FD8369"/>
<path d="M142.297 122.783L149.167 132.776C149.367 133.07 149.486 133.411 149.513 133.765C149.54 134.118 149.475 134.473 149.322 134.794C149.17 135.115 148.937 135.39 148.645 135.593C148.354 135.795 148.015 135.918 147.661 135.949L135.585 136.948C135.23 136.976 134.874 136.909 134.553 136.756C134.231 136.603 133.956 136.368 133.753 136.074C133.551 135.781 133.429 135.44 133.4 135.085C133.371 134.729 133.436 134.373 133.588 134.051L138.793 123.084C138.944 122.761 139.177 122.483 139.47 122.279C139.762 122.075 140.103 121.951 140.458 121.92C140.813 121.89 141.17 121.953 141.493 122.105C141.816 122.256 142.093 122.49 142.297 122.783Z" fill="#FD8369"/>
<path d="M109.52 415.064L225.249 438.075L245.851 334.352L130.122 311.341L109.52 415.064Z" fill="#DE8E68"/>
<path d="M134.793 347.304L250.518 370.315L245.873 334.349L130.143 311.337L134.793 347.304Z" fill="#D37C59"/>
<path d="M43.2722 401.881L109.531 415.056L130.133 311.333L63.8742 298.158L43.2722 401.881Z" fill="#D37C59"/>
<path d="M112.428 342.851L46.2949 329.701L64.0146 298.182L130.142 311.337L112.428 342.851Z" fill="#DE8E68"/>
<path d="M153.956 423.898L180.816 429.239L186.894 398.64L160.034 393.3L153.956 423.898Z" fill="#D37C59"/>
<path d="M124.95 374.922L165.401 382.966L169.838 360.629L129.387 352.586L124.95 374.922Z" fill="#FED385"/>
<path d="M153.243 377.154L162.387 378.972L165.61 362.744L156.466 360.926L153.243 377.154Z" fill="#FD8369"/>
<path d="M131.049 359.177L153.897 363.72L154.511 360.629L131.663 356.086L131.049 359.177Z" fill="#FD8369"/>
<path d="M129.993 364.465L152.841 369.008L153.455 365.917L130.606 361.374L129.993 364.465Z" fill="#FD8369"/>
</g>
<defs>
<clipPath id="clip0">
<rect width="370" height="440" fill="white"/>
</clipPath>
</defs>
</svg>
