<svg width="384" height="186" viewBox="0 0 384 186" fill="none" xmlns="http://www.w3.org/2000/svg">
<g filter="url(#filter0_d)">
<rect x="16" y="12" width="352" height="154" rx="12" fill="url(#paint0_linear)"></rect>
</g>
<mask id="mask0" mask-type="alpha" maskUnits="userSpaceOnUse" x="16" y="12" width="352" height="154">
<rect x="16" y="12" width="352" height="154" rx="12" fill="url(#paint1_linear)"></rect>
</mask>
<g mask="url(#mask0)">
<path opacity="0.2" d="M350.27 -0.295037C349.54 -1.1508 348.521 -1.70941 347.407 -1.86536C346.292 -2.0213 345.159 -1.76378 344.222 -1.14144L321.274 14.1218L294.369 7.63085C293.561 7.43142 292.713 7.45491 291.917 7.69882C291.121 7.94273 290.406 8.39793 289.848 9.01597C289.29 9.63401 288.911 10.3918 288.749 11.2086C288.588 12.0253 288.651 12.8706 288.932 13.6544L298.569 39.8564L284.012 62.6729C283.566 63.3613 283.311 64.1568 283.275 64.9768C283.238 65.7968 283.422 66.6115 283.807 67.3367C284.191 68.0618 284.763 68.671 285.462 69.1011C286.161 69.5313 286.962 69.7667 287.783 69.783L315.264 70.5916L333.698 91.0452C334.237 91.6663 334.933 92.1317 335.712 92.393C336.492 92.6543 337.328 92.702 338.132 92.5311C338.936 92.3602 339.68 91.977 340.287 91.4213C340.893 90.8655 341.339 90.1576 341.579 89.371L349.593 63.5053L375.736 53.9098C376.512 53.6205 377.196 53.1271 377.716 52.4816C378.235 51.8361 378.57 51.0624 378.687 50.2421C378.803 49.4218 378.696 48.5854 378.377 47.8209C378.057 47.0564 377.538 46.3923 376.873 45.8984L354.612 29.6319L351.331 2.21297C351.238 1.28915 350.869 0.414903 350.27 -0.295037ZM343.1 10.6415L345.667 32.6699C345.746 33.2982 345.952 33.9037 346.275 34.4485C346.598 34.9932 347.029 35.4656 347.543 35.836L364.538 48.243L344.247 55.6563C343.592 55.9005 343.002 56.2907 342.52 56.7972C342.038 57.3038 341.678 57.9134 341.467 58.5798L335.19 78.9138L320.88 62.9471C320.456 62.4783 319.939 62.102 319.362 61.8418C318.786 61.5815 318.162 61.4428 317.53 61.4344L296.16 60.812L307.545 42.8647C307.916 42.2744 308.149 41.6074 308.225 40.914C308.301 40.2206 308.218 39.5191 307.984 38.8623L300.57 18.5718L321.031 23.5277C321.643 23.6794 322.28 23.7035 322.903 23.5987C323.525 23.4939 324.119 23.2623 324.648 22.9183L343.1 10.6415ZM411.656 131.103C411.227 130.571 410.684 130.142 410.068 129.846L390.687 120.173L384.598 99.39C384.358 98.597 383.909 97.8835 383.297 97.3246C382.686 96.7658 381.935 96.3823 381.123 96.2146C380.312 96.0469 379.47 96.1013 378.687 96.3719C377.904 96.6426 377.209 97.1195 376.674 97.7524L362.605 114.51L341.547 113.58C340.73 113.539 339.918 113.715 339.192 114.092C338.467 114.469 337.854 115.032 337.419 115.724C336.983 116.415 336.739 117.211 336.712 118.028C336.685 118.845 336.877 119.654 337.266 120.373L347.523 139.455L340.811 159.919C340.549 160.697 340.5 161.531 340.669 162.334C340.837 163.137 341.217 163.881 341.77 164.488C342.323 165.095 343.027 165.543 343.811 165.786C344.595 166.029 345.43 166.058 346.229 165.871L366.868 161.203L383.583 175.213C384.226 175.742 385 176.087 385.824 176.211C386.647 176.336 387.488 176.234 388.259 175.918C389.029 175.602 389.699 175.083 390.198 174.416C390.696 173.749 391.005 172.959 391.09 172.131L393.445 150.598L410.782 137.611C411.271 137.244 411.682 136.784 411.991 136.257C412.3 135.73 412.502 135.146 412.583 134.54C412.664 133.935 412.624 133.319 412.465 132.729C412.306 132.138 412.031 131.586 411.656 131.103ZM399.295 134.785L386.364 144.409C385.845 144.779 385.409 145.253 385.082 145.801C384.756 146.348 384.547 146.957 384.468 147.59L382.888 162.598L370.985 152.678C370.446 152.218 369.809 151.889 369.123 151.716C368.437 151.543 367.72 151.53 367.028 151.679L352.085 155.067L356.866 140.358C357.07 139.771 357.153 139.149 357.11 138.53C357.067 137.91 356.899 137.305 356.616 136.752L349.23 123.127L364.553 123.781C365.252 123.807 365.947 123.674 366.587 123.392C367.227 123.11 367.793 122.686 368.245 122.152L378.165 110.248L382.459 124.729C382.634 125.338 382.933 125.904 383.336 126.392C383.74 126.879 384.24 127.279 384.805 127.564L399.295 134.785ZM320.047 105.397C319.589 104.83 319.002 104.381 318.335 104.085C317.668 103.789 316.941 103.656 316.213 103.697L279.05 106.005L252.083 80.2964C251.481 79.7193 250.733 79.3167 249.919 79.1316C249.106 78.9466 248.258 78.9859 247.465 79.2456C246.672 79.5052 245.965 79.9753 245.418 80.6057C244.872 81.2361 244.507 82.0031 244.363 82.8247L237.89 120.008L205.464 136.925C204.754 137.304 204.155 137.862 203.728 138.545C203.301 139.227 203.06 140.01 203.03 140.814C202.999 141.619 203.18 142.417 203.555 143.13C203.93 143.842 204.484 144.444 205.164 144.876L236.767 164.421L244.483 200.769C244.659 201.555 245.038 202.28 245.582 202.874C246.126 203.467 246.816 203.907 247.584 204.151C248.351 204.394 249.169 204.432 249.956 204.26C250.742 204.089 251.47 203.714 252.067 203.174L278.947 178.372L316.13 184.845C316.952 184.987 317.797 184.903 318.575 184.602C319.353 184.301 320.034 183.794 320.546 183.135C321.059 182.477 321.382 181.692 321.483 180.864C321.584 180.036 321.458 179.196 321.118 178.434L306.035 144.365L320.766 110.169C321.099 109.385 321.209 108.524 321.082 107.681C320.955 106.839 320.597 106.048 320.047 105.397ZM309.311 113.389L296.808 142.501C296.562 143.082 296.437 143.708 296.443 144.34C296.448 144.971 296.584 145.595 296.84 146.172L309.198 174.242L278.33 168.868C277.629 168.748 276.911 168.792 276.231 168.996C275.55 169.2 274.926 169.559 274.408 170.044L251.779 190.887L245.391 160.552C245.262 159.948 245.011 159.377 244.656 158.871C244.3 158.366 243.847 157.937 243.322 157.611L216.93 141.348L244.194 127.094C244.826 126.77 245.375 126.304 245.797 125.732C246.219 125.161 246.503 124.5 246.627 123.8L252 92.9314L274.243 114.048C274.699 114.485 275.24 114.823 275.833 115.042C276.425 115.26 277.057 115.355 277.687 115.319L309.311 113.389Z" fill="#F6FBFC"></path>
</g>


<defs>
<filter id="filter0_d" x="0" y="0" width="384" height="186" filterUnits="userSpaceOnUse" color-interpolation-filters="sRGB">
<feFlood flood-opacity="0" result="BackgroundImageFix"></feFlood>
<feColorMatrix in="SourceAlpha" type="matrix" values="0 0 0 0 0 0 0 0 0 0 0 0 0 0 0 0 0 0 127 0"></feColorMatrix>
<feOffset dy="4"></feOffset>
<feGaussianBlur stdDeviation="8"></feGaussianBlur>
<feColorMatrix type="matrix" values="0 0 0 0 0.345833 0 0 0 0 0.345833 0 0 0 0 0.345833 0 0 0 0.25 0"></feColorMatrix>
<feBlend mode="normal" in2="BackgroundImageFix" result="effect1_dropShadow"></feBlend>
<feBlend mode="normal" in="SourceGraphic" in2="effect1_dropShadow" result="shape"></feBlend>
</filter>
<linearGradient id="paint0_linear" x1="39.5" y1="12" x2="404" y2="166" gradientUnits="userSpaceOnUse">
<stop stop-color="#4568DC"></stop>
<stop offset="1" stop-color="#B06AB3"></stop>
</linearGradient>
<linearGradient id="paint1_linear" x1="39.5" y1="12" x2="404" y2="166" gradientUnits="userSpaceOnUse">
<stop stop-color="#43C6AC"></stop>
<stop offset="1" stop-color="#191654"></stop>
</linearGradient>
</defs>
</svg>