<svg width="76" height="73" viewBox="0 0 76 73" fill="none" xmlns="http://www.w3.org/2000/svg">
<circle cx="52.3057" cy="55.3521" r="17.6221" fill="#C3E3F8"/>
<rect x="0.938965" y="12.2341" width="43.4929" height="57.7406" fill="#C3E3F8"/>
<rect x="3.18848" y="3.98547" width="35.2443" height="11.2482" fill="#C3E3F8"/>
<path d="M19.2698 17.6327H12.8695C12.2983 17.6327 11.8442 18.0867 11.8442 18.6579C11.8442 19.2291 12.2983 19.6831 12.8695 19.6831H19.2698C19.841 19.6831 20.295 19.2291 20.295 18.6579C20.295 18.0867 19.841 17.6327 19.2698 17.6327Z" fill="#203546"/>
<path d="M33.5789 19.6831H39.9793C40.5505 19.6831 41.0045 19.2291 41.0045 18.6579C41.0045 18.0867 40.5505 17.6327 39.9793 17.6327H33.5789C33.0077 17.6327 32.5537 18.0867 32.5537 18.6579C32.5537 19.2291 33.0224 19.6831 33.5789 19.6831Z" fill="#203546"/>
<path d="M29.6389 17.6327H23.2386C22.6674 17.6327 22.2134 18.0867 22.2134 18.6579C22.2134 19.2291 22.6674 19.6831 23.2386 19.6831H29.6389C30.2101 19.6831 30.6642 19.2291 30.6642 18.6579C30.6642 18.0867 30.1955 17.6327 29.6389 17.6327Z" fill="#203546"/>
<path d="M19.2698 26.5521H12.8695C12.2983 26.5521 11.8442 27.0061 11.8442 27.5773C11.8442 28.1485 12.2983 28.6025 12.8695 28.6025H19.2698C19.841 28.6025 20.295 28.1485 20.295 27.5773C20.295 27.0061 19.841 26.5521 19.2698 26.5521Z" fill="#203546"/>
<path d="M33.5789 28.6025H39.9793C40.5505 28.6025 41.0045 28.1485 41.0045 27.5773C41.0045 27.0061 40.5505 26.5521 39.9793 26.5521H33.5789C33.0077 26.5521 32.5537 27.0061 32.5537 27.5773C32.5537 28.1485 33.0224 28.6025 33.5789 28.6025Z" fill="#203546"/>
<path d="M29.6389 26.5521H23.2386C22.6674 26.5521 22.2134 27.0061 22.2134 27.5773C22.2134 28.1485 22.6674 28.6025 23.2386 28.6025H29.6389C30.2101 28.6025 30.6642 28.1485 30.6642 27.5773C30.6642 27.0061 30.1955 26.5521 29.6389 26.5521Z" fill="#203546"/>
<path d="M19.2698 35.4862H12.8695C12.2983 35.4862 11.8442 35.9402 11.8442 36.5114C11.8442 37.0826 12.2983 37.5367 12.8695 37.5367H19.2698C19.841 37.5367 20.295 37.0826 20.295 36.5114C20.295 35.9402 19.841 35.4862 19.2698 35.4862Z" fill="#203546"/>
<path d="M33.5789 37.5367H39.9793C40.5505 37.5367 41.0045 37.0826 41.0045 36.5114C41.0045 35.9402 40.5505 35.4862 39.9793 35.4862H33.5789C33.0077 35.4862 32.5537 35.9402 32.5537 36.5114C32.5537 37.0826 33.0224 37.5367 33.5789 37.5367Z" fill="#203546"/>
<path d="M29.6389 35.4862H23.2386C22.6674 35.4862 22.2134 35.9402 22.2134 36.5114C22.2134 37.0826 22.6674 37.5367 23.2386 37.5367H29.6389C30.2101 37.5367 30.6642 37.0826 30.6642 36.5114C30.6642 35.9402 30.1955 35.4862 29.6389 35.4862Z" fill="#203546"/>
<path d="M19.2698 44.4056H12.8695C12.2983 44.4056 11.8442 44.8597 11.8442 45.4309C11.8442 46.0021 12.2983 46.4561 12.8695 46.4561H19.2698C19.841 46.4561 20.295 46.0021 20.295 45.4309C20.295 44.8597 19.841 44.4056 19.2698 44.4056Z" fill="#203546"/>
<path d="M29.6389 44.4056H23.2386C22.6674 44.4056 22.2134 44.8597 22.2134 45.4309C22.2134 46.0021 22.6674 46.4561 23.2386 46.4561H29.6389C30.2101 46.4561 30.6642 46.0021 30.6642 45.4309C30.6642 44.8597 30.1955 44.4056 29.6389 44.4056Z" fill="#203546"/>
<path d="M56.3975 34.3145C53.6587 34.3145 51.0517 34.8857 48.6937 35.9256V10.2657C48.6937 9.6945 48.2397 9.24048 47.6685 9.24048H43.0989V2.00533C43.0989 1.43413 42.6449 0.980103 42.0737 0.980103H12.2543C11.6831 0.980103 11.2291 1.43413 11.2291 2.00533V9.24048H6.6595C6.08831 9.24048 5.63428 9.6945 5.63428 10.2657V68.9231C5.63428 69.4943 6.08831 69.9484 6.6595 69.9484H46.0134C49.0159 71.867 52.5749 72.9801 56.3975 72.9801C67.0598 72.9801 75.7303 64.3096 75.7303 53.6473C75.7303 42.985 67.0598 34.3145 56.3975 34.3145ZM13.2795 3.03055H41.0484V9.24048H13.2795V3.03055ZM33.9451 67.8979H19.7091V52.8271H33.9451V67.8979ZM35.9956 67.8979V51.8019C35.9956 51.2307 35.5415 50.7767 34.9703 50.7767H18.6693C18.0981 50.7767 17.644 51.2307 17.644 51.8019V67.8979H7.68473V11.2909H46.6432V36.9655C43.6115 38.7376 41.107 41.3153 39.4227 44.4057H33.579C33.0078 44.4057 32.5537 44.8597 32.5537 45.4309C32.5537 46.0021 33.0078 46.4561 33.579 46.4561H38.4561C37.5627 48.6823 37.0647 51.1135 37.0647 53.6473C37.0647 59.286 39.4813 64.3536 43.3479 67.8979H35.9956ZM56.3975 70.9297C46.8629 70.9297 39.1152 63.1819 39.1152 53.6473C39.1152 44.1127 46.8629 36.365 56.3975 36.365C65.9321 36.365 73.6798 44.1127 73.6798 53.6473C73.6798 63.1819 65.9321 70.9297 56.3975 70.9297Z" fill="#203546"/>
<path d="M56.3976 45.7824C58.2576 45.7824 59.7661 47.2909 59.7661 49.1509C59.7661 49.7221 60.2202 50.1762 60.7914 50.1762C61.3626 50.1762 61.8166 49.7221 61.8166 49.1509C61.8166 46.5147 59.9273 44.3177 57.4228 43.8344V42.3405C57.4228 41.7693 56.9688 41.3153 56.3976 41.3153C55.8264 41.3153 55.3723 41.7693 55.3723 42.3405V43.8344C52.8679 44.3177 50.9785 46.5147 50.9785 49.1509C50.9785 52.1387 53.4098 54.57 56.3976 54.57C58.2576 54.57 59.7661 56.0785 59.7661 57.9386C59.7661 59.784 58.2723 61.2779 56.4415 61.3072C56.4269 61.3072 56.4122 61.3072 56.3976 61.3072C56.3829 61.3072 56.3683 61.3072 56.3536 61.3072C54.5082 61.2779 53.029 59.784 53.029 57.9386C53.029 57.3674 52.5749 56.9134 52.0037 56.9134C51.4325 56.9134 50.9785 57.3674 50.9785 57.9386C50.9785 60.5749 52.8679 62.7718 55.3723 63.2551V64.954C55.3723 65.5252 55.8264 65.9793 56.3976 65.9793C56.9688 65.9793 57.4228 65.5252 57.4228 64.954V63.2697C59.9273 62.7864 61.8166 60.5895 61.8166 57.9532C61.8166 54.9654 59.3854 52.5342 56.3976 52.5342C54.5375 52.5342 53.029 51.0256 53.029 49.1656C53.029 47.3055 54.5375 45.7824 56.3976 45.7824Z" fill="#203546"/>
</svg>
