<svg width="24" height="24" viewBox="0 0 24 24" fill="none" xmlns="http://www.w3.org/2000/svg">
<path d="M7.33901 10.085L11.9998 5.42436L16.663 10.0874L19.375 7.37544L11.9998 0L4.62713 7.37304L7.33901 10.085ZM0 11.9996L2.71208 9.28754L5.42399 11.9995L2.71193 14.7115L0 11.9996ZM7.33901 13.915L11.9998 18.5756L16.6629 13.9127L19.3763 16.6232L19.375 16.6247L11.9998 24L4.62689 16.6272L4.62305 16.6234L7.33901 13.915ZM18.5761 12.0011L21.2882 9.28904L24.0001 12.0009L21.288 14.713L18.5761 12.0011Z" fill="#F3BA2F"/>
<path d="M14.7506 11.9986H14.7518L11.9999 9.2466L9.9661 11.2804H9.96598L9.73234 11.5141L9.25042 11.9962L9.24658 11.9999L9.25042 12.0038L11.9999 14.7534L14.7518 12.0014L14.7531 11.9999L14.7506 11.9986Z" fill="#F3BA2F"/>
</svg>
