<svg width="88" height="88" viewBox="0 0 88 88" fill="none" xmlns="http://www.w3.org/2000/svg">
<path d="M20.3281 32.296V70.224C20.3281 70.312 20.3281 73.304 22.3521 75.416C23.6721 76.736 25.5201 77.44 27.7201 77.44H60.1041C62.3921 77.44 64.2401 76.736 65.4721 75.416C67.5841 73.304 67.4961 70.312 67.4961 70.224V32.296C67.4961 28.336 64.7681 25.96 62.6561 24.728C64.2401 23.848 65.3841 22.088 65.3841 20.152V14.872C65.3841 11.968 63.0961 9.67999 60.1921 9.67999H27.6321C24.7281 9.67999 22.4401 11.968 22.4401 14.872V20.152C22.4401 22.088 23.5841 23.848 25.1681 24.728C23.0561 25.96 20.3281 28.336 20.3281 32.296ZM24.2001 14.872C24.2001 12.936 25.7841 11.44 27.6321 11.44H60.3681C62.3041 11.44 63.8001 13.024 63.8001 14.872V20.152C63.8001 22.088 62.2161 23.584 60.3681 23.584H27.8081H27.6321C25.6961 23.584 24.2001 22 24.2001 20.152V14.872ZM27.9841 25.344H60.1041C60.9841 25.608 66.0001 27.632 66.0001 32.296V70.224C66.0001 70.224 66.0001 72.6 64.4161 74.184C63.3601 75.24 61.9521 75.68 60.1921 75.68H27.8081C26.0481 75.68 24.6401 75.152 23.6721 74.184C22.0881 72.6 22.0881 70.224 22.0881 70.224V32.296C22.0881 27.632 27.1041 25.696 27.9841 25.344Z" fill="white"/>
<path d="M27.8082 22C28.3362 22 28.6882 21.648 28.6882 21.12V14.256C28.6882 13.728 28.3362 13.376 27.8082 13.376C27.2802 13.376 26.9282 13.728 26.9282 14.256V21.12C26.9282 21.56 27.2802 22 27.8082 22Z" fill="white"/>
<path d="M31.3278 22C31.8558 22 32.2078 21.648 32.2078 21.12V14.256C32.2078 13.728 31.8558 13.376 31.3278 13.376C30.7998 13.376 30.4478 13.728 30.4478 14.256V21.12C30.4478 21.56 30.8878 22 31.3278 22Z" fill="white"/>
<path d="M34.9362 22C35.4642 22 35.8162 21.648 35.8162 21.12V14.256C35.8162 13.728 35.4642 13.376 34.9362 13.376C34.4082 13.376 34.0562 13.728 34.0562 14.256V21.12C34.0562 21.56 34.4962 22 34.9362 22Z" fill="white"/>
<path d="M38.5441 22C39.0721 22 39.4241 21.648 39.4241 21.12V14.256C39.4241 13.728 39.0721 13.376 38.5441 13.376C38.0161 13.376 37.6641 13.728 37.6641 14.256V21.12C37.6641 21.56 38.1041 22 38.5441 22Z" fill="white"/>
<path d="M42.152 22C42.68 22 43.032 21.648 43.032 21.12V14.256C43.032 13.728 42.68 13.376 42.152 13.376C41.624 13.376 41.272 13.728 41.272 14.256V21.12C41.272 21.56 41.712 22 42.152 22Z" fill="white"/>
<path d="M45.7599 22C46.2879 22 46.6399 21.648 46.6399 21.12V14.256C46.6399 13.728 46.2879 13.376 45.7599 13.376C45.2319 13.376 44.8799 13.728 44.8799 14.256V21.12C44.8799 21.56 45.3199 22 45.7599 22Z" fill="white"/>
<path d="M49.3678 22C49.8958 22 50.2478 21.648 50.2478 21.12V14.256C50.2478 13.728 49.8958 13.376 49.3678 13.376C48.8398 13.376 48.4878 13.728 48.4878 14.256V21.12C48.4878 21.56 48.9278 22 49.3678 22Z" fill="white"/>
<path d="M52.9762 22C53.5042 22 53.8562 21.648 53.8562 21.12V14.256C53.8562 13.728 53.5042 13.376 52.9762 13.376C52.4482 13.376 52.0962 13.728 52.0962 14.256V21.12C52.0962 21.56 52.4482 22 52.9762 22Z" fill="white"/>
<path d="M56.5841 22C57.1121 22 57.4641 21.648 57.4641 21.12V14.256C57.4641 13.728 57.1121 13.376 56.5841 13.376C56.0561 13.376 55.7041 13.728 55.7041 14.256V21.12C55.7041 21.56 56.0561 22 56.5841 22Z" fill="white"/>
<path d="M60.192 22C60.72 22 61.072 21.648 61.072 21.12V14.256C61.072 13.728 60.72 13.376 60.192 13.376C59.664 13.376 59.312 13.728 59.312 14.256V21.12C59.312 21.56 59.664 22 60.192 22Z" fill="white"/>
<path d="M43.2081 50.512V58.08C41.6241 57.64 40.3921 56.144 40.3921 54.384C40.3921 53.856 40.0401 53.504 39.5121 53.504C38.9841 53.504 38.6321 53.856 38.6321 54.384C38.6321 57.112 40.5681 59.4 43.2081 59.928V61.248C43.2081 61.776 43.5601 62.128 44.0881 62.128C44.6161 62.128 44.9681 61.776 44.9681 61.248V60.016C47.6961 59.664 49.8961 57.288 49.8961 54.472C49.8961 51.656 47.7841 49.28 44.9681 48.928V41.272C46.6401 41.712 47.9601 43.208 47.9601 44.968C47.9601 45.496 48.3121 45.848 48.8401 45.848C49.3681 45.848 49.7201 45.496 49.7201 44.968C49.7201 42.152 47.6961 39.864 44.9681 39.424V38.192C44.9681 37.664 44.6161 37.312 44.0881 37.312C43.5601 37.312 43.2081 37.664 43.2081 38.192V39.424C40.5681 39.864 38.4561 42.152 38.4561 44.968C38.4561 47.784 40.5681 50.072 43.2081 50.512ZM48.1361 54.384C48.1361 56.232 46.7281 57.816 44.9681 58.168V50.6C46.8161 50.952 48.1361 52.536 48.1361 54.384ZM43.2081 41.272V48.752C41.5361 48.312 40.2161 46.816 40.2161 45.056C40.2161 43.296 41.5361 41.624 43.2081 41.272Z" fill="white"/>
</svg>
