<svg width="80" height="80" viewBox="0 0 80 80" fill="none" xmlns="http://www.w3.org/2000/svg">
<g clip-path="url(#clip0)">
<path d="M15.2616 15.8769C20.6769 10.3385 27.8154 6.76923 35.4462 5.78461C36.0616 7.75384 37.7846 9.35384 40 9.35384C42.5846 9.35384 44.8 7.26154 44.8 4.55384C44.8 1.84615 42.7077 -0.246155 40 -0.246155C37.5385 -0.246155 35.5693 1.6 35.3231 3.93846C27.2 4.92308 19.5693 8.73846 13.9077 14.5231L15.2616 15.8769ZM40 1.6C41.6 1.6 42.9539 2.95385 42.9539 4.55384C42.9539 6.15384 41.6 7.50769 40 7.50769C38.4 7.50769 37.0462 6.15384 37.0462 4.55384C37.0462 2.83077 38.4 1.6 40 1.6Z" fill="white"/>
<path d="M5.04629 50.3385L6.76937 49.8462C5.78475 46.6462 5.41552 43.4462 5.41552 40.1231C5.41552 35.5692 6.27706 31.0154 8.00013 26.8308C8.36937 26.9538 8.86167 26.9538 9.2309 26.9538C10.954 26.9538 12.554 26.0923 13.4155 24.6154C14.0309 23.5077 14.2771 22.2769 13.9078 21.0462C13.5386 19.8154 12.8001 18.8308 11.6924 18.0923C10.954 17.7231 10.0924 17.4769 9.2309 17.4769C7.50783 17.4769 5.90783 18.3385 5.04629 19.8154C3.81552 21.9077 4.4309 24.4923 6.27706 25.9692C4.4309 30.4 3.44629 35.2 3.44629 40.1231C3.56937 43.4462 4.06167 47.0154 5.04629 50.3385ZM6.76937 20.6769C7.26167 19.8154 8.24629 19.2 9.35398 19.2C9.84629 19.2 10.3386 19.3231 10.8309 19.5692C11.4463 19.9385 11.9386 20.5539 12.1847 21.4154C12.4309 22.1539 12.3078 23.0154 11.9386 23.6308C11.0771 24.9846 9.2309 25.4769 7.87706 24.6154C6.40014 23.8769 5.90783 22.0308 6.76937 20.6769Z" fill="white"/>
<path d="M12.4308 60.9231C13.9077 59.4462 14.277 57.1077 13.1693 55.1385C12.3077 53.6616 10.7077 52.6769 8.98465 52.6769C8.12312 52.6769 7.38465 52.9231 6.64619 53.2923C5.5385 53.9077 4.67696 54.8923 4.43081 56.1231C4.06158 57.3539 4.30773 58.5846 4.92311 59.8154C5.78465 61.2923 7.38465 62.2769 9.10773 62.2769C9.72312 62.2769 10.3385 62.1539 10.9539 61.9077C15.7539 68.1846 22.4 72.8616 30.0308 74.9539L30.5231 73.2308C23.3847 71.2616 16.9847 66.8308 12.4308 60.9231ZM6.52311 58.9539C6.15388 58.2154 6.03081 57.4769 6.27696 56.7385C6.52311 56 7.01542 55.3846 7.63081 55.0154C8.12311 54.7693 8.61542 54.6462 9.10773 54.6462C10.2154 54.6462 11.2 55.2616 11.6923 56.1231C12.4308 57.4769 11.9385 59.3231 10.5847 60.1846C9.23081 60.9231 7.38465 60.3077 6.52311 58.9539Z" fill="white"/>
<path d="M64.4925 64.3693C59.0771 69.7846 52.0617 73.2308 44.554 74.2154C44.0617 72.2462 42.2156 70.6462 40.0002 70.6462C37.4156 70.6462 35.2002 72.7385 35.2002 75.3231C35.2002 76.5539 35.6925 77.7846 36.554 78.7693C37.4156 79.6308 38.6463 80.2462 39.8771 80.2462C42.3387 80.2462 44.3079 78.4 44.554 76.0616C52.554 75.077 59.9387 71.3846 65.7233 65.6L64.4925 64.3693ZM40.0002 78.5231V79.5077V78.5231C39.1387 78.5231 38.4002 78.1539 37.9079 77.6616C37.4156 77.0462 37.0463 76.3077 37.0463 75.5693C37.0463 73.9693 38.4002 72.6154 40.0002 72.6154C41.6002 72.6154 42.954 73.9693 42.954 75.5693C42.954 77.1693 41.6002 78.5231 40.0002 78.5231Z" fill="white"/>
<path d="M67.6922 19.3231C67.0768 19.9385 66.7076 20.5539 66.4614 21.4154C66.0922 22.6462 66.2153 23.8769 66.8307 25.1077C67.6922 26.5846 69.2922 27.5693 71.0153 27.5693C71.8768 27.5693 72.6153 27.3231 73.3537 26.9539C74.4614 26.3385 75.323 25.3539 75.5691 24.1231C75.9384 22.8923 75.8153 21.6616 75.1999 20.4308C74.3384 18.9539 72.7384 17.9692 71.0153 17.9692C70.3999 17.9692 69.7845 18.0923 69.2922 18.3385C64.2461 11.5692 56.9845 6.64617 48.8615 4.67694L48.3691 6.5231C56.123 8.36925 63.0153 12.9231 67.6922 19.3231ZM73.5999 21.2923C73.9691 22.0308 74.0922 22.7692 73.8461 23.5077C73.5999 24.2462 73.1076 24.8616 72.4922 25.2308C71.1384 25.9692 69.2922 25.4769 68.5538 24.1231C68.1845 23.3846 68.0614 22.6462 68.3076 21.9077C68.5537 21.1692 69.0461 20.5539 69.6614 20.1846C70.1537 19.9385 70.6461 19.8154 71.1384 19.8154C72.123 19.8154 73.1076 20.4308 73.5999 21.2923Z" fill="white"/>
<path d="M73.4771 54.4C75.4464 49.8461 76.431 45.0461 76.431 40C76.431 36.9231 76.0617 33.7231 75.2002 30.7692L73.354 31.2615C74.0925 34.0923 74.4617 37.0461 74.4617 40C74.4617 44.6769 73.4771 49.2308 71.631 53.5385C71.2617 53.4154 70.7694 53.4154 70.2771 53.4154C68.5541 53.4154 67.0771 54.2769 66.2156 55.7538C65.6002 56.8615 65.3541 58.0923 65.7233 59.3231C66.0925 60.5538 66.831 61.6615 67.9387 62.2769C68.6771 62.7692 69.5387 62.8923 70.4002 62.8923C72.1233 62.8923 73.6002 62.0308 74.4617 60.5538C75.0771 59.4461 75.3233 58.2154 74.9541 56.9846C74.9541 56 74.3387 55.1385 73.4771 54.4ZM72.9848 59.6923C72.2464 61.0461 70.2771 61.5385 68.9233 60.6769C67.5694 59.8154 67.0771 58.0923 67.9387 56.6154C68.431 55.7538 69.4156 55.1385 70.5233 55.1385C71.0156 55.1385 71.5079 55.2615 72.0002 55.5077C72.6156 55.8769 73.1079 56.4923 73.354 57.3538C73.6002 58.2154 73.4771 58.9538 72.9848 59.6923Z" fill="white"/>
<path d="M40.0003 22.8923C38.5234 22.8923 37.0465 23.2615 35.8157 24C34.585 23.2615 33.2311 22.7692 31.8773 22.7692C27.9388 22.7692 24.6157 25.9692 24.6157 30.0308C24.6157 34.0923 27.8157 37.2923 31.8773 37.2923C32.7388 37.2923 33.4773 37.1692 34.2157 36.9231C35.6926 38.4 37.785 39.2615 40.0003 39.2615C42.2157 39.2615 44.308 38.4 45.785 36.9231C46.5234 37.1692 47.385 37.2923 48.1234 37.2923C52.0619 37.2923 55.385 34.0923 55.385 30.0308C55.385 25.9692 52.185 22.7692 48.1234 22.7692C46.6465 22.7692 45.2926 23.2615 44.185 24C42.9542 23.2615 41.4773 22.8923 40.0003 22.8923ZM26.4619 30.0308C26.4619 27.0769 28.9234 24.6154 31.8773 24.6154C32.7388 24.6154 33.6003 24.8615 34.3388 25.2308C32.8619 26.7077 31.8773 28.8 31.8773 31.0154C31.8773 32.6154 32.3696 33.9692 33.108 35.2C32.7388 35.3231 32.3696 35.3231 31.8773 35.3231C28.8003 35.4462 26.4619 32.9846 26.4619 30.0308ZM40.0003 37.4154C36.5542 37.4154 33.6003 34.5846 33.6003 31.0154C33.6003 27.5692 36.4311 24.6154 40.0003 24.6154C43.4465 24.6154 46.4003 27.4462 46.4003 31.0154C46.4003 34.5846 43.4465 37.4154 40.0003 37.4154ZM48.1234 24.6154C51.0773 24.6154 53.5388 27.0769 53.5388 30.0308C53.5388 32.9846 51.0773 35.4461 48.1234 35.4461C47.7542 35.4461 47.385 35.4462 46.8926 35.3231C47.6311 34.0923 48.1234 32.6154 48.1234 31.1385C48.1234 28.8 47.1388 26.8308 45.6619 25.3538C46.5234 24.8615 47.2619 24.6154 48.1234 24.6154Z" fill="white"/>
<path d="M63.5081 51.9385C63.385 49.2308 63.1388 46.7693 62.7696 44.8V44.6769C62.6465 43.6923 62.2773 42.7077 61.785 41.6V41.4769C61.2927 40.6154 60.4311 39.7539 59.5696 39.2616C59.3234 39.1385 58.9542 38.8923 58.585 38.7692L53.2927 36.9231L51.2004 40.9846L46.0311 39.1385L40.8619 48.7385H39.1388L33.9696 39.1385L28.8004 40.9846L26.7081 36.9231L21.5388 38.7692C21.1696 38.8923 20.8004 39.0154 20.5542 39.2616C19.5696 39.7539 18.8311 40.6154 18.3388 41.4769L18.2158 41.7231C17.6004 42.7077 17.3542 43.8154 17.2311 44.8V44.9231C16.985 46.8923 16.7388 49.3539 16.4927 52.0616V53.0462H22.7696C22.6465 54.0308 22.6465 55.1385 22.5234 56.3692V57.3539H57.7234V56.3692C57.6004 55.1385 57.6004 54.0308 57.4773 53.0462H63.7542L63.5081 51.9385ZM18.3388 51.0769C18.4619 48.7385 18.7081 46.7692 18.9542 45.0462C18.9542 44.9231 18.9542 44.8 18.9542 44.8C19.0773 44.0616 19.3234 43.3231 19.8158 42.3385C20.185 41.7231 20.6773 41.2308 21.4158 40.7385C21.6619 40.6154 21.9081 40.4923 22.1542 40.3692L25.8465 39.0154L27.2004 41.6C26.0927 42.2154 25.1081 43.0769 24.4927 44.1846C23.7542 45.5385 23.2619 46.8923 23.2619 48.2462C23.2619 48.4923 23.0158 49.4769 22.8927 50.9539H18.3388V51.0769ZM24.3696 55.3846C24.6158 50.9539 25.1081 48.7385 25.1081 48.7385V48.4923C25.1081 47.5077 25.4773 46.4 26.0927 45.2923C26.7081 44.3077 27.6927 43.4462 28.8004 43.0769L33.1081 41.4769L38.0311 50.7077H41.8465L46.7696 41.4769L51.0773 42.9539C51.4465 43.0769 51.6927 43.2 51.9388 43.3231C52.6773 43.8154 53.2927 44.3077 53.785 45.1692V45.2923C54.2773 46.2769 54.6465 47.1385 54.7696 48C54.7696 48 54.7696 48.1231 54.7696 48.2462C55.0158 50.2154 55.2619 52.6769 55.5081 55.3846H24.3696ZM57.1081 51.0769C56.985 49.9692 56.8619 48.9846 56.7388 48V47.8769C56.6157 46.7693 56.2465 45.5385 55.5081 44.4308V44.3077C54.8927 43.3231 54.0311 42.4616 52.9234 41.8462L54.2773 39.2616L57.8465 40.6154C58.0927 40.7385 58.3388 40.8616 58.585 40.9846C59.2004 41.3539 59.6927 41.8462 60.185 42.4616V42.5846C60.6773 43.4462 60.9234 44.1846 61.0465 44.9231C61.0465 44.9231 61.0465 45.0462 61.0465 45.1692C61.2927 46.8923 61.5388 48.8616 61.6619 51.2H57.1081V51.0769Z" fill="white"/>
</g>
<defs>
<clipPath id="clip0">
<rect width="80" height="80" fill="white"/>
</clipPath>
</defs>
</svg>
