<svg width="84" height="79" viewBox="0 0 84 79" fill="none" xmlns="http://www.w3.org/2000/svg">
<circle cx="36.1152" cy="42.8471" r="35.5" fill="#C3E3F8"/>
<path d="M45.6152 0.632812C24.8194 0.632812 7.90088 17.5513 7.90088 38.3471C7.90088 59.1429 24.8194 76.0614 45.6152 76.0614C66.4109 76.0614 83.3295 59.1429 83.3295 38.3471C83.3295 17.5513 66.4109 0.632812 45.6152 0.632812ZM45.6152 73.7757C26.08 73.7757 10.1866 57.8823 10.1866 38.3471C10.1866 18.8119 26.08 2.91853 45.6152 2.91853C65.1503 2.91853 81.0437 18.8119 81.0437 38.3471C81.0437 57.8823 65.1503 73.7757 45.6152 73.7757Z" fill="#203546"/>
<path d="M68.243 15.7199C68.2219 15.6987 68.1938 15.6915 68.1715 15.6724C62.3819 9.91282 54.4077 6.34711 45.6152 6.34711C36.8221 6.34711 28.8474 9.91323 23.0577 15.6736C23.036 15.6923 23.0086 15.6993 22.988 15.7199C22.9674 15.7405 22.9604 15.7679 22.9418 15.7896C17.1814 21.5793 13.6152 29.554 13.6152 38.3471C13.6152 47.1402 17.1814 55.115 22.9418 60.9047C22.9604 60.9263 22.9674 60.9538 22.988 60.9743C23.0086 60.9949 23.036 61.002 23.0577 61.0207C28.8474 66.781 36.8221 70.3471 45.6152 70.3471C54.4077 70.3471 62.3819 66.7814 68.1715 61.0218C68.1938 61.0027 68.2219 60.9955 68.243 60.9743C68.2642 60.9532 68.2715 60.925 68.2906 60.9027C74.0499 55.1132 77.6152 47.1392 77.6152 38.3471C77.6152 29.555 74.0499 21.5811 68.2906 15.7915C68.2715 15.7692 68.2642 15.741 68.243 15.7199ZM71.7123 39.49H75.3006C75.0215 46.8215 72.0767 53.4793 67.4056 58.5209L64.877 55.9928C64.4305 55.5463 63.7073 55.5463 63.2609 55.9928C62.8145 56.4392 62.8145 57.163 63.2609 57.6088L65.7895 60.137C60.7478 64.8083 54.0898 67.7534 46.7581 68.0324V64.4442C46.7581 63.8131 46.2464 63.3013 45.6152 63.3013C44.9841 63.3013 44.4724 63.8131 44.4724 64.4442V68.0324C37.1408 67.7534 30.483 64.8085 25.4413 60.1373L27.9701 57.6088C28.4166 57.163 28.4166 56.4392 27.9701 55.9928C27.5237 55.5463 26.8005 55.5463 26.3541 55.9928L23.8252 58.5212C19.1539 53.4795 16.209 46.8216 15.9299 39.49H19.5181C20.1493 39.49 20.661 38.9782 20.661 38.3471C20.661 37.716 20.1493 37.2043 19.5181 37.2043H15.9299C16.209 29.8726 19.1539 23.2147 23.8252 18.173L26.3541 20.7015C26.5773 20.9247 26.8697 21.0363 27.1621 21.0363C27.4545 21.0363 27.7469 20.9247 27.9701 20.7015C28.4166 20.255 28.4166 19.5313 27.9701 19.0854L25.4413 16.5569C30.483 11.8858 37.1408 8.94086 44.4724 8.66177V12.25C44.4724 12.8811 44.9841 13.3929 45.6152 13.3929C46.2464 13.3929 46.7581 12.8811 46.7581 12.25V8.66177C54.0898 8.94086 60.7478 11.886 65.7895 16.5572L63.2609 19.0854C62.8145 19.5313 62.8145 20.255 63.2609 20.7015C63.4841 20.9247 63.7765 21.0363 64.0689 21.0363C64.3613 21.0363 64.6537 20.9247 64.877 20.7015L67.4056 18.1733C72.0767 23.2149 75.0215 29.8727 75.3006 37.2043H71.7123C71.0812 37.2043 70.5695 37.716 70.5695 38.3471C70.5695 38.9782 71.0812 39.49 71.7123 39.49Z" fill="#203546"/>
<path d="M60.2438 37.2042H50.5078C49.9865 34.984 47.9974 33.3214 45.6166 33.3214C45.3168 33.3214 45.0265 33.3594 44.7409 33.4099L38.722 19.4381C38.472 18.8583 37.7985 18.5898 37.2204 18.8404C36.6406 19.0904 36.3733 19.7623 36.6227 20.3421L42.6431 34.3175C41.4051 35.2337 40.5909 36.6921 40.5909 38.3471C40.5909 41.1183 42.8454 43.3728 45.6166 43.3728C47.9974 43.3728 49.9865 41.7102 50.5078 39.49H60.2438C60.8749 39.49 61.3867 38.9782 61.3867 38.3471C61.3867 37.716 60.8749 37.2042 60.2438 37.2042ZM45.6166 41.0871C44.106 41.0871 42.8766 39.8577 42.8766 38.3471C42.8766 36.8365 44.106 35.6071 45.6166 35.6071C47.1322 35.6071 48.3654 36.8365 48.3654 38.3471C48.3654 39.8577 47.1322 41.0871 45.6166 41.0871Z" fill="#203546"/>
</svg>
