<svg width="80" height="80" viewBox="0 0 80 80" fill="none" xmlns="http://www.w3.org/2000/svg">
<path d="M75.4401 46.56C75.4401 46.48 75.4401 46.48 75.4401 46.4L64.8801 16.88H74.3201C74.7201 16.88 75.1201 16.56 75.1201 16.08C75.1201 15.6 74.8001 15.28 74.3201 15.28H44.2401C43.9201 13.52 42.5601 12.08 40.7201 11.76V5.68C40.7201 5.28 40.4001 4.88 39.9201 4.88C39.4401 4.88 39.1201 5.2 39.1201 5.68V11.92C37.3601 12.24 35.9201 13.6 35.6001 15.44H5.68006C5.28006 15.44 4.88006 15.76 4.88006 16.24C4.88006 16.72 5.20006 17.04 5.68006 17.04H15.1201L4.56006 46.48C4.56006 46.56 4.56006 46.56 4.56006 46.64C4.56006 46.72 4.56006 46.72 4.56006 46.8C4.56006 53.2 9.84006 58.4 16.2401 58.4C22.6401 58.4 27.8401 53.2 27.9201 46.8C27.9201 46.72 27.9201 46.72 27.9201 46.64C27.9201 46.56 27.9201 46.56 27.9201 46.48L17.2801 16.88H35.7601C36.0801 18.64 37.4401 20.08 39.2801 20.4V64.88C33.5201 65.28 28.8801 70.08 28.8801 76C28.8801 76.4 29.2001 76.72 29.6001 76.72H50.4001C50.8001 76.72 51.1201 76.4 51.1201 76C51.1201 70.08 46.5601 65.28 40.7201 64.88V20.4C42.4801 20.08 43.9201 18.72 44.2401 16.88H62.7201L52.1601 46.48C52.1601 46.56 52.1601 46.56 52.1601 46.64C52.1601 46.72 52.1601 46.72 52.1601 46.8C52.1601 53.2 57.4401 58.4 63.8401 58.4C70.2401 58.4 75.4401 53.2 75.5201 46.8C75.4401 46.64 75.4401 46.64 75.4401 46.56ZM16.1601 56.88C10.8001 56.88 6.48006 52.72 6.08006 47.52H26.3201C25.9201 52.72 21.5201 56.88 16.1601 56.88ZM26.0001 45.92H6.40006L16.1601 18.4L26.0001 45.92ZM49.6001 75.28H30.4001C30.8001 70.32 34.9601 66.32 40.0001 66.32C40.1601 66.32 40.2401 66.32 40.4001 66.32C40.5601 66.32 40.6401 66.4 40.8001 66.4C45.5201 66.72 49.2801 70.56 49.6001 75.28ZM40.0001 18.96C38.4801 18.96 37.2001 17.68 37.2001 16.16C37.2001 14.64 38.4801 13.36 40.0001 13.36C41.5201 13.36 42.8001 14.64 42.8001 16.16C42.8001 17.68 41.5201 18.96 40.0001 18.96ZM63.8401 18.4L73.6001 45.92H54.0001L63.8401 18.4ZM63.8401 56.88C58.4801 56.88 54.1601 52.72 53.7601 47.52H74.0001C73.5201 52.72 69.1201 56.88 63.8401 56.88Z" fill="white"/>
</svg>
