<svg width="83" height="81" viewBox="0 0 83 81" fill="none" xmlns="http://www.w3.org/2000/svg">
<circle cx="41.6942" cy="20.4538" r="16.3158" fill="#C3E3F8"/>
<rect x="0.115234" y="39.9275" width="7.36842" height="41.0526" fill="#C3E3F8"/>
<rect x="5.37842" y="46.2433" width="7.36842" height="25.2632" fill="#C3E3F8"/>
<rect x="67.4839" y="46.2433" width="7.36842" height="25.2632" fill="#C3E3F8"/>
<rect x="12.7466" y="50.4538" width="57.8947" height="16.8421" fill="#C3E3F8"/>
<rect x="71.6943" y="39.9275" width="7.36842" height="41.0526" fill="#C3E3F8"/>
<path d="M38.0099 44.6643L34.3257 33.0853L49.5888 32.559L45.3783 44.6643H38.0099Z" fill="#C3E3F8"/>
<rect x="31.6943" y="43.0854" width="20" height="8.42105" fill="#C3E3F8"/>
<path d="M81.6054 35.0871H77.1993C76.6475 35.0871 76.2037 35.5327 76.2037 36.081V42.1152H72.7905C72.2423 42.1152 71.7984 42.5608 71.7984 43.1099V45.6713H55.8975V40.5801C55.8975 40.031 55.4519 39.5862 54.9037 39.5862H50.2063L54.8475 31.6205C59.3344 28.6161 62.2984 23.5038 62.2984 17.709C62.2984 8.48449 54.7905 0.980103 45.5686 0.980103C36.3405 0.980103 28.837 8.48536 28.837 17.709C28.837 23.5038 31.7993 28.6178 36.2879 31.6205L40.9274 39.5862H36.2309C35.6809 39.5862 35.2353 40.031 35.2353 40.5801V45.6713H19.3388V43.1099C19.3388 42.5608 18.8914 42.1152 18.3432 42.1152H14.93V36.081C14.93 35.5327 14.4844 35.0871 13.9379 35.0871H9.53175C8.98175 35.0871 8.53613 35.5327 8.53613 36.081V76.8889C8.53613 77.4389 8.98175 77.8845 9.53175 77.8845H13.9379C14.4844 77.8845 14.93 77.4389 14.93 76.8889V70.8547H18.3432C18.8914 70.8547 19.3388 70.4108 19.3388 69.8617V67.2976H36.6239C38.6458 70.759 42.3168 72.8862 46.3554 72.8862C50.3923 72.8862 54.0633 70.759 56.0835 67.2976H71.7993V69.8617C71.7993 70.4108 72.2432 70.8547 72.7914 70.8547H76.2046V76.8889C76.2046 77.4389 76.6484 77.8845 77.2002 77.8845H81.6063C82.1528 77.8845 82.5984 77.4389 82.5984 76.8889V36.081C82.5975 35.5327 82.1519 35.0871 81.6054 35.0871ZM30.8598 18.3976H32.6467C33.0291 18.3976 33.3353 18.0898 33.3353 17.709C33.3353 17.3301 33.0282 17.0222 32.6467 17.0222H30.8598C31.2107 9.43098 37.3221 3.33361 44.9203 3.00116V4.78186C44.9203 5.16168 45.2274 5.4687 45.6072 5.4687C45.987 5.4687 46.2958 5.1608 46.2958 4.78186V3.00466C53.8546 3.37747 59.923 9.45642 60.2747 17.0213H58.5379C58.1572 17.0213 57.851 17.3301 57.851 17.7082C57.851 18.0898 58.1581 18.3968 58.5379 18.3968H60.2747C59.9239 25.9626 53.8554 32.0433 46.2958 32.4152V30.6696C46.2958 30.2889 45.987 29.981 45.6072 29.981C45.2274 29.981 44.9203 30.2898 44.9203 30.6696V32.4196C37.323 32.088 31.2133 25.9906 30.8598 18.3976ZM39.5721 33.3108C41.4361 34.0301 43.4528 34.4406 45.5686 34.4406C47.6826 34.4406 49.6975 34.0301 51.5616 33.3117L47.9072 39.5862H43.2265L39.5721 33.3108ZM37.223 41.574H53.9089V45.6713H37.223V41.574ZM12.9432 75.8976H10.5239V37.0748H12.9432V43.1099V69.8626V75.8976ZM17.3475 68.8678H14.93V44.1047H17.3475V46.6661V66.3073V68.8678ZM46.3546 70.9012C43.4388 70.9012 40.7502 69.5547 39.0098 67.2994H53.6958C51.9554 69.5538 49.2695 70.9012 46.3546 70.9012ZM55.5002 65.3117H37.2081H19.3388V47.6582H36.2317H54.9046H71.7993V65.3117H55.5002ZM73.7844 68.8678V66.3064V46.6661V44.1047H76.2037V68.8678H73.7844ZM80.6098 75.8976H78.1905V69.8626V43.1099V37.0748H80.6098V75.8976Z" fill="#203546"/>
<path d="M45.5687 21.2213C47.5029 21.2213 49.0793 19.6468 49.0793 17.7091C49.0793 16.0091 47.8626 14.588 46.2556 14.2669V8.58274C46.2556 8.20291 45.9468 7.89502 45.5687 7.89502C45.1863 7.89502 44.8801 8.20379 44.8801 8.58274V14.2669C43.2714 14.588 42.0547 16.0091 42.0547 17.7091C42.0547 19.6468 43.631 21.2213 45.5687 21.2213ZM45.5687 16.1862C46.4082 16.1862 47.0915 16.8687 47.0915 17.7082C47.0915 18.5494 46.4082 19.2336 45.5687 19.2336C44.7257 19.2336 44.0424 18.5494 44.0424 17.7082C44.0424 16.8696 44.7257 16.1862 45.5687 16.1862Z" fill="#203546"/>
</svg>
