<svg width="32" height="23" viewBox="0 0 32 23" fill="none" xmlns="http://www.w3.org/2000/svg">
<ellipse cx="30.4718" cy="21.2097" rx="1.52842" ry="1.64735" fill="#017CC9"/>
<path d="M6.34546 22.6515C4.02748 22.6515 2.36627 22.1682 1.41976 20.8366C0.473254 19.4862 0 17.6294 0 15.2663V10.8958C0 8.40133 0.463595 6.50703 1.39079 5.21291C2.31798 3.91879 3.95988 3.27173 6.31648 3.27173C8.42198 3.27173 9.92866 3.82501 10.8365 4.93158C11.7637 6.03815 12.2273 7.66987 12.2273 9.82673V11.0499H9.12703V10.0237C9.12703 8.97336 9.07874 8.16688 8.98216 7.60422C8.88558 7.04156 8.63446 6.59143 8.22882 6.25383C7.84249 5.91624 7.2147 5.74744 6.34546 5.74744C5.4569 5.74744 4.79048 5.93499 4.34621 6.3101C3.92124 6.66645 3.64115 7.17285 3.50594 7.82929C3.37072 8.46697 3.30312 9.32972 3.30312 10.4175V15.7726C3.30312 16.9355 3.3997 17.8451 3.59286 18.5016C3.78603 19.158 4.09509 19.6269 4.52005 19.9082C4.96433 20.1895 5.5728 20.3302 6.34546 20.3302C7.17607 20.3302 7.79419 20.152 8.19984 19.7957C8.60549 19.4393 8.8566 18.9517 8.95318 18.3328C9.06908 17.7138 9.12703 16.8698 9.12703 15.8008V14.1128H12.2273V15.8008C12.2273 18.0702 11.4953 20.0549 10.8945 21.0335C9.77067 22.864 10.4689 22.6515 6.34546 22.6515Z" fill="#11232F"/>
<path d="M22.924 22.834C20.7634 22.834 19.211 22.3769 18.2669 21.4626C17.3409 20.5346 16.8779 19.1972 16.8779 17.4505V12.7871C16.8779 11.0676 17.35 9.7644 18.2941 8.87737C19.2383 7.99034 20.7816 7.54683 22.924 7.54683C25.0665 7.54683 26.6007 7.99716 27.5267 8.89784C28.4708 9.78486 28.9429 11.0813 28.9429 12.7871V17.4709C28.9429 19.1904 28.4708 20.5141 27.5267 21.4421C26.5825 22.3701 25.0483 22.834 22.924 22.834ZM22.924 21.0122C24.0679 21.0122 24.8395 20.7598 25.239 20.2548C25.6384 19.7499 25.8381 18.9857 25.8381 17.9622V12.3163C25.8381 11.3065 25.6384 10.5627 25.239 10.0851C24.8395 9.59381 24.0679 9.34818 22.924 9.34818C21.762 9.34818 20.9813 9.59381 20.5818 10.0851C20.1824 10.5627 19.9827 11.3065 19.9827 12.3163V17.9622C19.9827 18.9857 20.1824 19.7499 20.5818 20.2548C20.9813 20.7598 21.762 21.0122 22.924 21.0122Z" fill="#11232F"/>
<path fill-rule="evenodd" clip-rule="evenodd" d="M13.678 0H9.1084V11.417H12.3682V2.20328H13.626C14.6127 2.20328 15.3396 2.36066 15.807 2.67542C16.2743 2.97268 16.5772 3.44482 16.7157 4.09181C16.8715 4.72132 16.9494 5.63936 16.9494 6.84591V15.1494C16.9494 16.5484 16.8888 17.5975 16.7676 18.297C16.6638 18.979 16.3782 19.521 15.9108 19.9232C15.4608 20.3254 14.7252 20.5265 13.7039 20.5265H12.3682V13.9326H9.1084V22.6511H13.9116C16.058 22.6511 17.5898 22.0828 18.5072 20.9462C19.4419 19.7921 19.9092 18.0434 19.9092 15.7003V6.4787C19.9092 4.25793 19.4332 2.62296 18.4812 1.57377C17.5465 0.524591 15.9454 0 13.678 0Z" fill="#11232F"/>
</svg>
