<svg width="64" height="71" viewBox="0 0 64 71" fill="none" xmlns="http://www.w3.org/2000/svg">
<path d="M52.6958 50.9801C55.0245 43.9929 54.099 22.1305 53.8273 16.707C53.7895 15.9527 53.3252 15.2907 52.6322 14.9906L29.1274 4.80871C28.6416 4.59827 28.0922 4.58904 27.5996 4.78302L1.63122 15.0094C0.90303 15.2962 0.410094 15.9702 0.379547 16.7522C0.172052 22.0642 -0.343116 42.5865 3.63556 50.9801C7.39246 58.9059 23.7137 67.9949 27.5564 70.0517C28.0745 70.3291 28.6765 70.3522 29.2132 70.1127C33.1332 68.3632 49.5017 60.5637 52.6958 50.9801Z" fill="#C3E3F8"/>
<path d="M24.4824 33.7926L30.4824 41.2926L46.9824 26.2926" stroke="#203546" stroke-width="2.2" stroke-linecap="round" stroke-linejoin="round"/>
<path d="M6.70785 13.4801L33.7078 1.4801L61.2078 13.4801C61.2078 13.4801 64.6257 33.9083 59.2078 44.9801C53.4827 56.68 33.7078 66.4801 33.7078 66.4801C33.7078 66.4801 14.4739 57.2123 8.70785 45.9801C2.90053 34.6676 6.70785 13.4801 6.70785 13.4801Z" stroke="#203546" stroke-width="2.2" stroke-linecap="round" stroke-linejoin="round"/>
</svg>
