<svg width="100" height="100" viewBox="0 0 100 100" fill="none" xmlns="http://www.w3.org/2000/svg">
<rect x="15" y="23" width="56" height="71" fill="#C3E3F8"/>
<path d="M48.9501 58.302C49.3371 58.428 49.7391 58.49 50.1431 58.49C50.5051 58.49 50.8661 58.422 51.2221 58.323C51.2651 58.315 51.3071 58.317 51.3501 58.303C51.4971 58.255 51.6541 58.195 51.8161 58.126C51.8191 58.125 51.8221 58.124 51.8261 58.123C51.8261 58.122 51.8261 58.123 51.8261 58.122C53.1081 57.578 54.8261 56.333 56.4771 53.502C59.8291 47.755 58.2001 39.568 58.1291 39.223C58.0651 38.911 57.8561 38.648 57.5671 38.515C57.2771 38.382 56.9421 38.394 56.6631 38.55C56.6161 38.577 56.2591 38.779 55.7151 39.13L55.4071 33.89C55.2381 31.229 53.0161 29.145 50.3491 29.145C47.6821 29.145 45.4611 31.229 45.2931 33.875L44.8751 39.225C44.2631 38.826 43.8471 38.588 43.7791 38.55C43.5011 38.395 43.1651 38.383 42.8751 38.515C42.5851 38.648 42.3761 38.911 42.3131 39.223C42.2421 39.569 40.6131 47.755 43.9651 53.502C45.4811 56.105 47.1591 57.72 48.9501 58.302ZM54.7481 52.494C54.6061 52.738 54.4651 52.948 54.3241 53.163C54.2821 51.976 54.0171 50.641 53.5191 49.161C53.0531 47.777 52.3301 46.506 51.4941 45.351C53.1691 43.417 55.1361 41.929 56.3851 41.085C56.6771 43.58 56.9311 48.752 54.7481 52.494ZM47.2871 34.017C47.3901 32.407 48.7341 31.145 50.3481 31.145C51.9621 31.145 53.3071 32.407 53.4101 34.012L53.7911 40.488C52.6851 41.336 51.4081 42.441 50.2221 43.766C49.0791 42.488 47.8541 41.418 46.7751 40.583L47.2871 34.017ZM44.0531 41.087C46.1401 42.498 50.2411 45.693 51.6231 49.8C52.6201 52.76 52.3851 54.418 52.0131 55.289C51.8271 55.724 51.4711 56.079 51.0111 56.293C50.9761 56.307 50.9461 56.318 50.9141 56.33C50.4701 56.509 49.9971 56.54 49.5671 56.399C48.6671 56.107 47.2641 55.192 45.6901 52.494C43.5081 48.753 43.7621 43.581 44.0531 41.087Z" fill="#203546"/>
<path d="M50.118 10C46.929 10 44.333 12.595 44.333 15.784V16.269H38.589C38.037 16.269 37.589 16.716 37.589 17.269V19.296H23.229C22.677 19.296 22.229 19.743 22.229 20.296V89C22.229 89.553 22.677 90 23.229 90H77.007C77.559 90 78.007 89.553 78.007 89V20.297C78.007 19.744 77.559 19.297 77.007 19.297H62.647V17.27C62.647 16.717 62.199 16.27 61.647 16.27H55.903V15.785C55.902 12.595 53.307 10 50.118 10ZM76.007 88H24.229V21.297H28.96V82.36C28.96 82.913 29.408 83.36 29.96 83.36H70.276C70.828 83.36 71.276 82.913 71.276 82.36V21.297H76.007V88ZM69.276 21.297V81.36H30.96V21.297H37.589V24.199C37.589 24.752 38.037 25.199 38.589 25.199H61.647C62.199 25.199 62.647 24.752 62.647 24.199V21.297H69.276ZM60.646 18.27V23.2H39.589V18.27H45.333C45.885 18.27 46.333 17.823 46.333 17.27V15.785C46.333 13.698 48.031 12.001 50.118 12.001C52.205 12.001 53.903 13.698 53.903 15.785V17.27C53.903 17.823 54.351 18.27 54.903 18.27H60.646Z" fill="#203546"/>
<path d="M35.377 65.777C35.377 66.33 35.825 66.777 36.377 66.777H63.858C64.41 66.777 64.858 66.33 64.858 65.777C64.858 65.224 64.41 64.777 63.858 64.777H36.377C35.825 64.777 35.377 65.225 35.377 65.777Z" fill="#203546"/>
<path d="M63.858 73.656H36.377C35.825 73.656 35.377 74.103 35.377 74.656C35.377 75.209 35.825 75.656 36.377 75.656H63.858C64.41 75.656 64.858 75.209 64.858 74.656C64.858 74.103 64.411 73.656 63.858 73.656Z" fill="#203546"/>
</svg>
