<svg width="32" height="32" viewBox="0 0 32 32" fill="none" xmlns="http://www.w3.org/2000/svg">
<path d="M25.1462 30.1846C24.5795 30.1846 24.0129 30.1846 23.4499 30.1846C22.0748 30.1846 20.6997 30.1846 19.321 30.1846C17.6174 30.1846 15.9139 30.1846 14.2104 30.1846C12.662 30.1846 11.1101 30.1846 9.56174 30.1846C8.64862 30.1846 7.7355 30.1846 6.81877 30.1846C6.74658 30.1846 6.6744 30.1846 6.60222 30.1846C6.56252 30.1846 6.51921 30.1846 6.4795 30.181C6.45063 30.1774 6.281 30.1593 6.45424 30.181C6.60583 30.199 6.49394 30.1846 6.45424 30.1738C6.38206 30.1593 6.31709 30.1341 6.24852 30.1124C6.16551 30.0871 6.2016 30.0474 6.33153 30.1485C6.30987 30.1304 6.27378 30.1196 6.24852 30.1052C6.17994 30.0691 6.11859 30.0149 6.05001 29.9789C6.23047 30.0691 6.17272 30.0799 6.10776 30.0186C6.0861 29.9969 6.06084 29.9752 6.03918 29.9536C6.01031 29.9247 5.98505 29.8958 5.95978 29.867C5.90565 29.8092 5.93091 29.7695 6.01392 29.9392C5.98866 29.885 5.94174 29.8345 5.91286 29.784C5.89482 29.7515 5.88038 29.7118 5.85873 29.6793C5.80098 29.5927 5.93091 29.885 5.88399 29.7443C5.86234 29.6757 5.84068 29.6071 5.82263 29.5385C5.80459 29.4519 5.82985 29.387 5.82624 29.6107C5.82624 29.5782 5.81902 29.5421 5.81902 29.5133C5.81542 29.4772 5.81542 29.4447 5.81542 29.4086C5.81542 29.34 5.81542 29.2715 5.81542 29.2029C5.81542 28.1707 5.81542 27.1348 5.81542 26.1026C5.81542 24.4388 5.81542 22.7749 5.81542 21.1111C5.81542 19.6025 5.81542 18.0938 5.81542 16.5888C5.81542 16.1377 5.81542 15.6865 5.81542 15.239C5.81542 15.1343 5.81542 15.026 5.81542 14.9214C5.81542 14.9033 5.81542 14.8853 5.81542 14.8672C5.81542 14.86 5.81542 14.8492 5.81542 14.842C5.81542 14.8023 5.81903 14.759 5.82263 14.7193C5.82624 14.6435 5.87316 14.6038 5.8082 14.8131C5.82624 14.7517 5.83346 14.6868 5.85151 14.6254C5.86234 14.5893 5.88038 14.5496 5.89121 14.5135C5.91647 14.4125 5.79376 14.7084 5.86594 14.5785C5.90204 14.5171 5.93452 14.4558 5.97061 14.398C6.02114 14.315 6.07528 14.3259 5.9273 14.4486C5.94896 14.4305 5.97061 14.398 5.98866 14.38C6.03197 14.3331 6.07889 14.2934 6.1222 14.2501C6.2413 14.1346 5.97061 14.3475 6.06806 14.2898C6.10054 14.2681 6.13302 14.2465 6.16551 14.2248C6.2016 14.2031 6.42176 14.1021 6.26656 14.1634C6.10776 14.2248 6.34236 14.1418 6.38206 14.131C6.41454 14.1237 6.44341 14.1165 6.47589 14.1093C6.61665 14.0696 6.38567 14.1165 6.37845 14.1165C6.4398 14.0985 6.5156 14.1057 6.57695 14.1057C6.61665 14.1057 6.65996 14.1057 6.69966 14.1057C6.99201 14.1057 7.28796 14.1057 7.5803 14.1057C8.80381 14.1057 10.0273 14.1057 11.2508 14.1057C12.9183 14.1057 14.5893 14.1057 16.2568 14.1057C17.8881 14.1057 19.5195 14.1057 21.1508 14.1057C22.2624 14.1057 23.3777 14.1057 24.4893 14.1057C24.7022 14.1057 24.9116 14.1021 25.1245 14.1057C25.1823 14.1057 25.2364 14.1093 25.2941 14.1129C25.471 14.1201 25.1065 14.0768 25.222 14.1057C25.2617 14.1165 25.3014 14.1237 25.3411 14.131C25.4024 14.149 25.4602 14.1779 25.5215 14.1923C25.323 14.149 25.3699 14.1201 25.4349 14.1598C25.4638 14.1743 25.489 14.1887 25.5179 14.2031C25.5504 14.2212 25.5829 14.2465 25.619 14.2645C25.7453 14.3403 25.5973 14.2645 25.5684 14.2212C25.6081 14.2789 25.6875 14.3295 25.7381 14.38C25.7561 14.398 25.7778 14.4341 25.7994 14.4486C25.7886 14.4413 25.6695 14.2609 25.7417 14.3764C25.7742 14.4305 25.8103 14.481 25.8391 14.5352C25.8536 14.5641 25.9113 14.7084 25.8536 14.5532C25.7958 14.4053 25.8463 14.5424 25.8608 14.5785C25.8788 14.629 25.933 14.7553 25.9185 14.8095C25.9185 14.8095 25.9005 14.5605 25.9041 14.7156C25.9041 14.7481 25.9077 14.7806 25.9113 14.8131C25.9113 14.8347 25.9113 14.8528 25.9113 14.8708C25.9185 15.6324 25.9113 16.3939 25.9113 17.1591C25.9113 18.7471 25.9113 20.3351 25.9113 21.9232C25.9113 23.5401 25.9113 25.157 25.9113 26.7739C25.9113 27.6401 25.9149 28.5027 25.9113 29.3689C25.9113 29.3833 25.9113 29.4014 25.9113 29.4158C25.9113 29.4339 25.9113 29.4447 25.9113 29.4664C25.9113 29.4988 25.9077 29.5313 25.9041 29.5638C25.8969 29.719 25.9185 29.47 25.9185 29.47C25.9294 29.5205 25.8824 29.6324 25.868 29.6793C25.8572 29.7154 25.8355 29.7551 25.8283 29.7912C25.8319 29.7767 25.9294 29.5855 25.8608 29.7046C25.8283 29.7587 25.803 29.8128 25.7669 29.867C25.7525 29.8922 25.6587 30.0186 25.7561 29.8886C25.8463 29.7731 25.7778 29.8598 25.7525 29.8886C25.702 29.9392 25.6551 29.9861 25.6045 30.0366C25.5468 30.0907 25.5071 30.0655 25.6767 29.9825C25.6515 29.9933 25.6262 30.0186 25.6009 30.0366C25.5432 30.0763 25.4782 30.1052 25.4169 30.1413C25.3194 30.199 25.6442 30.0655 25.4818 30.116C25.4529 30.1268 25.4205 30.1377 25.3916 30.1449C25.3338 30.1629 25.2581 30.1629 25.2039 30.1882C25.3519 30.1232 25.3916 30.1701 25.2978 30.1738C25.2472 30.1774 25.1967 30.181 25.1462 30.1846C24.6734 30.1918 24.2222 30.596 24.2439 31.0869C24.2655 31.5705 24.6409 31.9964 25.1462 31.9892C26.5682 31.9675 27.7051 30.8198 27.7159 29.4014C27.7195 29.1451 27.7159 28.8889 27.7159 28.629C27.7159 27.3008 27.7159 25.9691 27.7159 24.6409C27.7159 22.9193 27.7159 21.1977 27.7159 19.4762C27.7159 18.1732 27.7159 16.8667 27.7159 15.5638C27.7159 15.3328 27.7195 15.1018 27.7159 14.8744C27.7015 13.4597 26.5574 12.3155 25.1426 12.2975C24.5254 12.2903 23.9082 12.2975 23.291 12.2975C21.8546 12.2975 20.4181 12.2975 18.9781 12.2975C17.2457 12.2975 15.5133 12.2975 13.7809 12.2975C12.2434 12.2975 10.7059 12.2975 9.16834 12.2975C8.33823 12.2975 7.51173 12.2975 6.68162 12.2975C5.75767 12.2975 4.9456 12.6981 4.41866 13.4669C4.07218 13.9685 4 14.5605 4 15.1524C4 16.2604 4 17.3684 4 18.48C4 20.1872 4 21.8943 4 23.6014C4 25.0776 4 26.5501 4 28.0263C4 28.4233 4 28.8203 4 29.2173C4 29.2859 4 29.3545 4 29.423C4.00722 30.1016 4.27069 30.762 4.75432 31.2457C5.29209 31.7834 5.99948 32 6.73937 32C7.06058 32 7.3818 32 7.70302 32C8.98066 32 10.2583 32 11.536 32C13.2467 32 14.9575 32 16.6682 32C18.2996 32 19.9345 32 21.5659 32C22.6089 32 23.6556 32 24.6986 32C24.8466 32 24.9946 32 25.1426 32C25.6154 32 26.0665 31.5849 26.0449 31.0977C26.0268 30.596 25.6551 30.1846 25.1462 30.1846Z" fill="#F6FBFC"/>
<path d="M23.3805 12.2939C22.8825 12.2939 22.3844 12.2939 21.8863 12.2939C20.6881 12.2939 19.4935 12.2939 18.2952 12.2939C16.8479 12.2939 15.4007 12.2939 13.9534 12.2939C12.701 12.2939 11.4486 12.2939 10.1998 12.2939C9.59349 12.2939 8.97993 12.2722 8.37358 12.2939C8.36637 12.2939 8.35554 12.2939 8.34832 12.2939C8.64788 12.5934 8.95105 12.8966 9.25061 13.1962C9.25061 11.6659 9.25061 10.1392 9.25061 8.60892C9.25061 8.29492 9.25061 7.98092 9.27949 7.66692C9.28671 7.58391 9.29753 7.5009 9.30475 7.41789C9.32641 7.23021 9.26866 7.64527 9.29753 7.4612C9.30475 7.41067 9.31197 7.36375 9.31919 7.31322C9.34806 7.13637 9.38415 6.95952 9.42746 6.78628C9.50687 6.45785 9.61153 6.13302 9.73785 5.81902C9.76312 5.75767 9.84252 5.60247 9.71981 5.85873C9.74146 5.81542 9.75951 5.77211 9.77755 5.7288C9.81004 5.65661 9.84252 5.58443 9.87861 5.51224C9.9544 5.35705 10.0374 5.20185 10.1276 5.05027C10.207 4.91312 10.2901 4.77958 10.3803 4.64965C10.4272 4.57747 10.4777 4.50528 10.5283 4.43671C10.5499 4.40423 10.5752 4.37174 10.5968 4.34287C10.6979 4.20572 10.4525 4.51972 10.586 4.35731C10.7989 4.09384 11.0227 3.8412 11.2681 3.6066C11.3872 3.49111 11.51 3.38283 11.6363 3.27455C11.7012 3.22042 11.7734 3.16628 11.8384 3.11214C11.8312 3.11575 11.6543 3.24929 11.7698 3.16628C11.8203 3.13019 11.8709 3.09049 11.9214 3.05439C12.1921 2.86311 12.4772 2.68626 12.7696 2.53467C12.9248 2.45166 13.0836 2.37948 13.2424 2.30729C13.2965 2.28203 13.3939 2.25677 13.1594 2.34339C13.2027 2.32895 13.2496 2.30729 13.2929 2.28925C13.3831 2.25316 13.4734 2.22067 13.5636 2.18819C13.892 2.0727 14.2313 1.98247 14.5741 1.9175C14.6644 1.89946 14.751 1.88502 14.8412 1.87058C14.8737 1.86698 14.9062 1.85976 14.9387 1.85615C14.6499 1.90307 14.8304 1.87058 14.8954 1.86337C15.0794 1.84171 15.2599 1.82727 15.444 1.82006C15.7327 1.80923 16.0286 1.80923 16.3174 1.82367C16.4834 1.83088 16.6494 1.84532 16.8154 1.86337C16.884 1.87058 17.0537 1.91029 16.7721 1.85615C16.8046 1.86337 16.8371 1.86698 16.8696 1.87058C16.967 1.88502 17.0645 1.90307 17.1619 1.92111C17.512 1.98969 17.8549 2.08353 18.1942 2.20263C18.2699 2.22789 18.3457 2.25677 18.4179 2.28564C18.4612 2.30369 18.5082 2.32534 18.5515 2.33978C18.5442 2.33617 18.3349 2.24594 18.4685 2.30369C18.6273 2.37587 18.7861 2.44805 18.9413 2.53106C19.248 2.69348 19.5476 2.87755 19.8291 3.07966C19.8869 3.12297 20.1034 3.29982 19.8724 3.10853C19.9338 3.15906 19.9951 3.20598 20.0565 3.25651C20.2009 3.37561 20.3416 3.50193 20.4788 3.63547C20.717 3.86646 20.9371 4.11188 21.1428 4.37174C21.2547 4.5125 21.0129 4.19489 21.1176 4.33926C21.1356 4.36453 21.1537 4.38979 21.1753 4.41505C21.2259 4.48363 21.2764 4.55581 21.3233 4.628C21.4244 4.77958 21.5218 4.93117 21.612 5.08997C21.6914 5.22712 21.7672 5.36788 21.8358 5.50864C21.8719 5.58082 21.9044 5.653 21.9369 5.72519C21.9549 5.7685 21.973 5.81181 21.9946 5.85512C21.8755 5.60608 21.9513 5.75406 21.9766 5.81541C22.1065 6.14385 22.2148 6.48311 22.2978 6.82959C22.3375 6.9884 22.37 7.1472 22.3952 7.30961C22.4025 7.35653 22.4097 7.40706 22.4169 7.45759C22.4458 7.63444 22.3952 7.2663 22.4097 7.38902C22.4205 7.48646 22.4313 7.58752 22.4422 7.68497C22.4602 7.90513 22.4674 8.12168 22.4674 8.34184C22.4674 9.90822 22.4674 11.4782 22.4674 13.0446C22.4674 13.0915 22.4674 13.142 22.4674 13.189C22.4674 13.6618 22.8825 14.1129 23.3697 14.0913C23.857 14.0696 24.272 13.6943 24.272 13.189C24.272 11.6334 24.272 10.0742 24.272 8.51869C24.272 7.27352 24.0482 6.0861 23.5538 4.94199C22.9438 3.53442 21.9152 2.33978 20.6628 1.46275C18.1364 -0.305749 14.6463 -0.457335 11.9214 0.935808C9.18204 2.33617 7.44603 5.25599 7.4352 8.32018C7.43159 9.89018 7.4352 11.4602 7.4352 13.0302C7.4352 13.0843 7.4352 13.1348 7.4352 13.189C7.4352 13.6762 7.85025 14.0913 8.33749 14.0913C8.83556 14.0913 9.33362 14.0913 9.83169 14.0913C11.0299 14.0913 12.2246 14.0913 13.4228 14.0913C14.8701 14.0913 16.3174 14.0913 17.7647 14.0913C19.017 14.0913 20.2694 14.0913 21.5182 14.0913C22.1245 14.0913 22.7345 14.1057 23.3444 14.0913C23.3517 14.0913 23.3625 14.0913 23.3697 14.0913C23.8425 14.0913 24.2937 13.6762 24.272 13.189C24.2576 12.7089 23.8858 12.2939 23.3805 12.2939Z" fill="#F6FBFC"/>
<path d="M14.9434 23.0204C14.9434 23.8252 14.9434 24.6337 14.9434 25.4385C14.9434 25.9113 15.3584 26.3625 15.8457 26.3408C16.3329 26.3192 16.7479 25.9438 16.7479 25.4385C16.7479 24.6337 16.7479 23.8252 16.7479 23.0204C16.7479 22.5476 16.3329 22.0964 15.8457 22.1181C15.3548 22.1397 14.9434 22.5115 14.9434 23.0204Z" fill="#F6FBFC"/>
</svg>
