<svg width="83" height="82" viewBox="0 0 83 82" fill="none" xmlns="http://www.w3.org/2000/svg">
<path fill-rule="evenodd" clip-rule="evenodd" d="M33.5473 4.42859L31.2317 14.9253C28.6709 15.6258 26.2499 16.671 24.0203 18.0086L15.0125 11.4564L7.74117 18.5051L13.7089 28.4922C12.4162 30.7223 11.4048 33.1397 10.724 35.6945L0.458496 38.0602L0.859462 48.2436L10.4571 50.0104C11.2126 53.3465 12.5271 56.4667 14.2955 59.2646L9.42132 66.4663L16.5452 73.6676L24.0817 68.8162C26.3445 70.1662 28.8034 71.2154 31.4046 71.9095L33.0439 81.3303L43.1109 81.4286L45.2466 72.1681C48.6755 71.3903 51.876 70.0004 54.7303 68.1176L61.5322 72.9768L68.7439 65.8657L64.0597 58.1753C65.4886 55.6832 66.5673 52.9597 67.2275 50.0739L76.4585 48.217L76.3362 38.0263L67.0675 36.0503C66.289 32.9758 65.0331 30.0949 63.3846 27.4935L69.1107 19.0806L62.0057 11.8603L53.0082 17.6185C50.6826 16.3065 48.161 15.3078 45.4991 14.6785L43.6148 4.42859H33.5473Z" fill="#C3E3F8"/>
<path d="M43.4583 17.6104C39.1431 17.6104 34.9248 18.89 31.3368 21.2874C27.7488 23.6849 24.9523 27.0924 23.301 31.0791C21.6496 35.0659 21.2175 39.4528 22.0594 43.6851C22.9012 47.9174 24.9792 51.805 28.0305 54.8564C31.0819 57.9077 34.9695 59.9857 39.2018 60.8275C43.4341 61.6694 47.821 61.2373 51.8078 59.586C55.7945 57.9346 59.2021 55.1381 61.5995 51.5501C63.9969 47.9621 65.2765 43.7438 65.2765 39.4286C65.2765 33.6421 62.9778 28.0925 58.8861 24.0008C54.7944 19.9091 49.2449 17.6104 43.4583 17.6104ZM43.4583 58.8225C39.6226 58.8225 35.8729 57.6851 32.6836 55.5541C29.4943 53.423 27.0085 50.3941 25.5407 46.8503C24.0728 43.3066 23.6887 39.4071 24.437 35.645C25.1854 31.883 27.0324 28.4273 29.7447 25.715C32.457 23.0027 35.9127 21.1556 39.6748 20.4073C43.4368 19.659 47.3363 20.0431 50.8801 21.5109C54.4238 22.9788 57.4528 25.4646 59.5838 28.6539C61.7148 31.8432 62.8523 35.5928 62.8523 39.4286C62.8523 44.5722 60.809 49.5051 57.1719 53.1422C53.5348 56.7793 48.6019 58.8225 43.4583 58.8225Z" fill="#203546"/>
<path d="M81.325 33.368L73.9795 31.5256C73.2372 28.6623 72.099 25.9166 70.5977 23.368L74.5007 16.871C74.6394 16.6395 74.6968 16.3683 74.6639 16.1004C74.6309 15.8325 74.5095 15.5833 74.3189 15.3922L67.4583 8.56799C67.2672 8.37737 67.018 8.25598 66.7501 8.22304C66.4823 8.19011 66.2111 8.24751 65.9795 8.38617L59.4826 12.2892C56.9339 10.7879 54.1882 9.6497 51.325 8.90738L49.5189 1.56192C49.4526 1.29298 49.2961 1.05489 49.0755 0.887274C48.855 0.719661 48.5837 0.632645 48.3068 0.640712H38.6098C38.3329 0.632645 38.0616 0.719661 37.8411 0.887274C37.6206 1.05489 37.4641 1.29298 37.3977 1.56192L35.5916 8.90738C32.7284 9.6497 29.9827 10.7879 27.4341 12.2892L20.9371 8.38617C20.7056 8.24751 20.4343 8.19011 20.1665 8.22304C19.8986 8.25598 19.6494 8.37737 19.4583 8.56799L12.5977 15.4286C12.4071 15.6197 12.2857 15.8689 12.2528 16.1368C12.2198 16.4046 12.2772 16.6758 12.4159 16.9074L16.3189 23.4044C14.8177 25.953 13.6794 28.6987 12.9371 31.5619L5.59165 33.368C5.32271 33.4344 5.08461 33.5908 4.917 33.8114C4.74939 34.0319 4.66237 34.3032 4.67044 34.5801V44.2771C4.66237 44.554 4.74939 44.8253 4.917 45.0458C5.08461 45.2664 5.32271 45.4228 5.59165 45.4892L12.9371 47.3316C13.6794 50.1949 14.8177 52.9406 16.3189 55.4892L12.4159 61.9498C12.2772 62.1814 12.2198 62.4526 12.2528 62.7204C12.2857 62.9883 12.4071 63.2375 12.5977 63.4286L19.4583 70.2892C19.6494 70.4798 19.8986 70.6012 20.1665 70.6341C20.4343 70.6671 20.7056 70.6097 20.9371 70.471L27.4341 66.568C29.9827 68.0692 32.7284 69.2075 35.5916 69.9498L37.3977 77.2953C37.4641 77.5642 37.6206 77.8023 37.8411 77.9699C38.0616 78.1375 38.3329 78.2245 38.6098 78.2165H48.3068C48.5837 78.2245 48.855 78.1375 49.0755 77.9699C49.2961 77.8023 49.4526 77.5642 49.5189 77.2953L51.3613 69.9498C54.2246 69.2075 56.9703 68.0692 59.5189 66.568L66.0159 70.471C66.2474 70.6097 66.5186 70.6671 66.7865 70.6341C67.0544 70.6012 67.3036 70.4798 67.4947 70.2892L74.3553 63.4286C74.5459 63.2375 74.6673 62.9883 74.7002 62.7204C74.7332 62.4526 74.6758 62.1814 74.5371 61.9498L70.6341 55.4528C72.1353 52.9042 73.2736 50.1585 74.0159 47.2953L81.325 45.4892C81.5939 45.4228 81.832 45.2664 81.9996 45.0458C82.1672 44.8253 82.2543 44.554 82.2462 44.2771V34.5801C82.2543 34.3032 82.1672 34.0319 81.9996 33.8114C81.832 33.5908 81.5939 33.4344 81.325 33.368ZM79.8219 43.3316L72.6704 45.1134C72.4534 45.1684 72.2558 45.2825 72.0996 45.443C71.9434 45.6035 71.8347 45.8041 71.7856 46.0225C71.0739 49.1309 69.8446 52.0975 68.1492 54.7983C68.0428 54.9826 67.9868 55.1916 67.9868 55.4044C67.9868 55.6171 68.0428 55.8261 68.1492 56.0104L71.9432 62.3256L66.428 67.8407L60.1129 64.0468C59.9286 63.9404 59.7196 63.8844 59.5068 63.8844C59.294 63.8844 59.085 63.9404 58.9007 64.0468C56.2 65.7422 53.2334 66.9714 50.125 67.6831C49.9065 67.7323 49.7059 67.8409 49.5454 67.9971C49.385 68.1533 49.2709 68.3509 49.2159 68.568L47.3613 75.7922H39.5553L37.7735 68.6407C37.7185 68.4236 37.6044 68.2261 37.4439 68.0699C37.2835 67.9137 37.0829 67.805 36.8644 67.7559C33.756 67.0442 30.7894 65.8149 28.0886 64.1195C27.8973 64.0015 27.677 63.939 27.4523 63.939C27.2275 63.939 27.0072 64.0015 26.8159 64.1195L20.5007 67.9134L14.9856 62.3862L18.7795 56.071C18.8859 55.8867 18.9419 55.6777 18.9419 55.465C18.9419 55.2522 18.8859 55.0432 18.7795 54.8589C17.0841 52.1581 15.8549 49.1915 15.1432 46.0831C15.094 45.8647 14.9854 45.6641 14.8292 45.5036C14.673 45.3431 14.4754 45.2291 14.2583 45.174L7.09468 43.3316V35.5256L14.2462 33.7437C14.4633 33.6887 14.6609 33.5747 14.817 33.4142C14.9732 33.2537 15.0819 33.0531 15.131 32.8347C15.8428 29.7263 17.072 26.7597 18.7674 24.0589C18.8854 23.8676 18.9479 23.6473 18.9479 23.4225C18.9479 23.1978 18.8854 22.9775 18.7674 22.7862L14.9856 16.471L20.5007 10.9559L26.8159 14.7498C27.0072 14.8678 27.2275 14.9303 27.4523 14.9303C27.677 14.9303 27.8973 14.8678 28.0886 14.7498C30.7894 13.0544 33.756 11.8252 36.8644 11.1134C37.0829 11.0643 37.2835 10.9556 37.4439 10.7994C37.6044 10.6433 37.7185 10.4457 37.7735 10.2286L39.5553 3.06495H47.3613L49.1432 10.2165C49.1982 10.4335 49.3122 10.6311 49.4727 10.7873C49.6332 10.9435 49.8338 11.0522 50.0522 11.1013C53.1606 11.813 56.1272 13.0423 58.828 14.7377C59.0123 14.8441 59.2213 14.9001 59.4341 14.9001C59.6468 14.9001 59.8559 14.8441 60.0401 14.7377L66.3553 10.9437L71.8704 16.4589L68.0765 22.774C67.9585 22.9653 67.896 23.1857 67.896 23.4104C67.896 23.6352 67.9585 23.8555 68.0765 24.0468C69.7719 26.7476 71.0011 29.7142 71.7129 32.8225C71.762 33.041 71.8707 33.2416 72.0268 33.4021C72.183 33.5625 72.3806 33.6766 72.5977 33.7316L79.8219 35.5256V43.3316Z" fill="#203546"/>
<path d="M42.3917 23.0892L29.0584 47.3316C28.952 47.5159 28.896 47.7249 28.896 47.9377C28.896 48.1505 28.952 48.3595 29.0584 48.5438C29.1693 48.726 29.3263 48.8758 29.5136 48.978C29.7008 49.0801 29.9118 49.131 30.1251 49.1256H56.7917C57.0021 49.1255 57.2088 49.0708 57.3916 48.9666C57.5743 48.8625 57.7269 48.7126 57.8342 48.5316C57.9405 48.3474 57.9965 48.1383 57.9965 47.9256C57.9965 47.7128 57.9405 47.5038 57.8342 47.3195L44.5008 23.0771C44.394 22.8911 44.2398 22.7369 44.0539 22.63C43.8681 22.5231 43.6572 22.4674 43.4427 22.4686C43.2283 22.4699 43.0181 22.528 42.8334 22.637C42.6488 22.746 42.4964 22.9021 42.3917 23.0892ZM32.1735 46.7013L43.4584 26.1922L54.7432 46.7013H32.1735Z" fill="#203546"/>
<path d="M42.2461 32.1558V39.4286C42.2461 39.75 42.3738 40.0584 42.6011 40.2857C42.8284 40.513 43.1367 40.6407 43.4582 40.6407C43.7797 40.6407 44.088 40.513 44.3153 40.2857C44.5426 40.0584 44.6703 39.75 44.6703 39.4286V32.1558C44.6703 31.8344 44.5426 31.5261 44.3153 31.2987C44.088 31.0714 43.7797 30.9437 43.4582 30.9437C43.1367 30.9437 42.8284 31.0714 42.6011 31.2987C42.3738 31.5261 42.2461 31.8344 42.2461 32.1558Z" fill="#203546"/>
<path d="M43.4582 44.2771C44.1276 44.2771 44.6703 43.7344 44.6703 43.065C44.6703 42.3955 44.1276 41.8528 43.4582 41.8528C42.7888 41.8528 42.2461 42.3955 42.2461 43.065C42.2461 43.7344 42.7888 44.2771 43.4582 44.2771Z" fill="#203546"/>
</svg>
