<svg width="57" height="40" viewBox="0 0 57 40" fill="none" xmlns="http://www.w3.org/2000/svg">
<g clip-path="url(#clip0)">
<path d="M30.7643 20.0349C30.7643 25.7253 26.1753 30.3382 20.5149 30.3382C14.8544 30.3382 10.2651 25.7253 10.2651 20.0349C10.2651 14.3446 14.8541 9.73134 20.5149 9.73134C26.1757 9.73134 30.7643 14.3446 30.7643 20.0349Z" fill="#0CB5B9"/>
<path d="M42.008 20.0349C42.008 25.3912 39.7136 29.735 36.8832 29.735C34.0528 29.735 31.7583 25.3912 31.7583 20.0349C31.7583 14.6787 34.0524 10.3349 36.8828 10.3349C39.7132 10.3349 42.0077 14.6773 42.0077 20.0349" fill="#0CB5B9"/>
<path d="M46.6074 20.0349C46.6074 24.8328 45.8006 28.7247 44.805 28.7247C43.8094 28.7247 43.0029 24.8339 43.0029 20.0349C43.0029 15.236 43.8098 11.3452 44.805 11.3452C45.8002 11.3452 46.6074 15.2357 46.6074 20.0349Z" fill="#0CB5B9"/>
</g>
<defs>
<clipPath id="clip0">
<rect width="56.8924" height="40" fill="white"/>
</clipPath>
</defs>
</svg>
