<svg width="32" height="28" viewBox="0 0 32 28" fill="none" xmlns="http://www.w3.org/2000/svg">
<path d="M3.04762 0C1.37242 0 0 1.37242 0 3.04762V24.7619C0 26.2261 1.20251 27.4286 2.66667 27.4286H29.3333C30.7975 27.4286 32 26.2261 32 24.7619V7.23809C32 5.77394 30.7975 4.57143 29.3333 4.57143H27.4286V0.761905C27.4285 0.362971 27.0656 3.80952e-05 26.6667 0H3.04762ZM3.04762 1.52381H25.9048V4.57143H3.04762C2.19025 4.57143 1.52381 3.90499 1.52381 3.04762C1.52381 2.19025 2.19025 1.52381 3.04762 1.52381ZM1.52381 5.67855C1.97291 5.94011 2.49356 6.09524 3.04762 6.09524C11.6282 6.08762 21.9583 6.09524 29.3333 6.09524C29.9797 6.09524 30.4762 6.59177 30.4762 7.23809V11.0476H19.4286C18.3865 11.0476 17.5238 11.9103 17.5238 12.9524V19.0476C17.5238 20.0897 18.3865 20.9524 19.4286 20.9524H30.4762V24.7619C30.4762 25.4082 29.9797 25.9048 29.3333 25.9048H2.66667C2.02034 25.9048 1.52381 25.4082 1.52381 24.7619V5.67855ZM19.4286 12.5714H30.4762V19.4286H19.4286C19.2043 19.4286 19.0476 19.2718 19.0476 19.0476V12.9524C19.0476 12.7281 19.2043 12.5714 19.4286 12.5714ZM23.2381 14.0834C22.1952 14.0834 21.3333 14.9451 21.3333 15.9881C21.3333 17.0311 22.1952 17.8929 23.2381 17.8929C24.281 17.8929 25.1429 17.0311 25.1429 15.9881C25.1429 14.9451 24.281 14.0834 23.2381 14.0834ZM23.2381 15.6072C23.4575 15.6072 23.619 15.7687 23.619 15.9881C23.619 16.2075 23.4575 16.3691 23.2381 16.3691C23.0187 16.3691 22.8571 16.2075 22.8571 15.9881C22.8571 15.7687 23.0187 15.6072 23.2381 15.6072Z" fill="#F6FBFC"/>
</svg>
